/* XPM */
static char *c33773c1de4d47e0d6ecceee921a4520kixqyUw345jlcaXV[] = {
/* columns rows colors chars-per-pixel */
"40 40 135 2 ",
"   c #0F230B",
".  c #10250C",
"X  c #112B0D",
"o  c #13340D",
"O  c #133C0E",
"+  c #133E10",
"@  c #13440E",
"#  c #134C0F",
"$  c #13540F",
"%  c #135B0F",
"&  c #144510",
"*  c #144C10",
"=  c #145410",
"-  c #135C10",
";  c #12630F",
":  c #116B0F",
">  c #0F750E",
",  c #0F7C0E",
"<  c #11740F",
"1  c #117B0F",
"2  c #136410",
"3  c #126C10",
"4  c #0F7B10",
"5  c #127310",
"6  c #127C10",
"7  c #0F830E",
"8  c #0E8C0E",
"9  c #10840F",
"0  c #108C0F",
"q  c #0F940E",
"w  c #0E9C0E",
"e  c #10940F",
"r  c #119A0F",
"t  c #0F8910",
"y  c #128310",
"u  c #118B10",
"i  c #0F9210",
"p  c #0F9C10",
"a  c #119310",
"s  c #119C10",
"d  c #0EA30D",
"f  c #0EAC0D",
"g  c #0DAE0D",
"h  c #0DAF0D",
"j  c #0EAE0D",
"k  c #0FAC0E",
"l  c #0EAE0E",
"z  c #0EAF0E",
"x  c #0FAF0E",
"c  c #0DAC0C",
"v  c #0EA90D",
"b  c #10A00E",
"n  c #10A50E",
"m  c #11A60F",
"M  c #10A70F",
"N  c #10A50F",
"B  c #10AA0D",
"V  c #10AE0F",
"C  c #10AA0E",
"Z  c #0DB00C",
"A  c #0DB10C",
"S  c #0DB00D",
"D  c #0DB10D",
"F  c #0EB00D",
"G  c #0FB00D",
"H  c #0EB30C",
"J  c #0DB00E",
"K  c #0FB10E",
"L  c #0FB20E",
"P  c #0FB30E",
"I  c #0DB20D",
"U  c #0DB40C",
"Y  c #0DB50C",
"T  c #0EB40D",
"R  c #0FB40D",
"E  c #0DB60C",
"W  c #0EB60C",
"Q  c #0FB60D",
"!  c #0EB70D",
"~  c #0FB50E",
"^  c #0EB60E",
"/  c #0EB70F",
"(  c #0CBB0B",
")  c #0EB80D",
"_  c #0EB90D",
"`  c #0DBA0C",
"'  c #0EBA0D",
"]  c #0EB90E",
"[  c #0EBA0E",
"{  c #0FBB0E",
"}  c #0DBD0D",
"|  c #0EBC0D",
" . c #0FBE0D",
".. c #0EBF0D",
"X. c #0FBF0D",
"o. c #0DBD0E",
"O. c #0FBC0E",
"+. c #0FBD0F",
"@. c #10B10E",
"#. c #10B00F",
"$. c #11B40F",
"%. c #11BD0F",
"&. c #0FA010",
"*. c #10A410",
"=. c #11A711",
"-. c #11A611",
";. c #10A010",
":. c #10AC10",
">. c #12AC11",
",. c #11B210",
"<. c #0BC10B",
"1. c #0CC10D",
"2. c #0FC20D",
"3. c #0FC30D",
"4. c #0FC00E",
"5. c #0FC10E",
"6. c #0EC40D",
"7. c #0FC40D",
"8. c #0FC70E",
"9. c #0ECA0D",
"0. c #0FCA0E",
"q. c #0FCF0F",
"w. c #10C40E",
"e. c #10C50E",
"r. c #10C80E",
"t. c #10CA0E",
"y. c #10CB0E",
"u. c #10CB0F",
"i. c #10CF0E",
"p. c #11D10F",
"a. c #10D30F",
"s. c #12C411",
"d. c #11C910",
"f. c #11CF10",
"g. c #14D412",
/* pixels */
"> 7 q q w c d c c E A ( ( } 4.p.p.g.a.i.g.7.4.K K ! c M d *.*.;.e 0 9 1 < 7 > : ",
"> , 7 q d c c d c Y E A } 4.4.9.9.y.p.9.d.9.%.K v K d d B :.B r e 0 e < 1 9 : , ",
"7 , , 7 w w d w Z ( Z c E ( w.4.<.y.y.4.%.4.! ! v v d w &.v &.w e e 1 < 7 , : < ",
"8 , 7 8 q w w w c U Z c l E w.4.4.w.s.( _ ! l v d d r w d s ;.a e 0 1 1 1 : ; ; ",
"7 7 , 7 q d q d w c c d c ! _ 7.} _ _ %.E @.:.r w w w q ;.r a w e y 1 9 < < ; ; ",
"8 8 > > 8 d w q q w d c K c ! K K } @.l l l V M e q d r e a 8 a 0 1 1 1 < : ; % ",
"> 7 > : , q q w w w d d v d V v @.K l n M v M *.p w a p a a a a y 5 5 1 : ; ; ; ",
"> 7 , : 7 8 q q w w w v d v v l V B d d w r d *.M s t i u u a u 1 5 < ; < : ; : ",
"> , > : , 8 8 q q q w w d v v v w d B q e e i n r a q q u 8 y 8 u 5 3 2 5 3 < < ",
", , , > > 7 8 q 8 d q w w d w d p n M s r q r e n r a e e u 1 y 6 6 2 ; 3 3 : ; ",
"> 7 , > , , 8 t y 8 w w &.&.w ;.r w e r q q 9 e r n 0 e u u 6 9 6 5 % 3 3 3 5 : ",
"; > , > , , , 7 t t q q e d s p a a e q r u a 8 a r u u 7 6 6 6 5 5 ; 2 3 5 3 ; ",
": > > , : , 4 4 , 9 9 0 e w &.e e u e e r r e 0 a a 9 0 u 6 6 5 y 5 2 3 3 3 ; # ",
"; > > > : > 7 7 1 7 8 t e a q e e 0 9 a a a e e a 0 0 u u 9 < 6 5 3 2 5 3 2 ; # ",
"; > > > , > > 4 , 7 t y 9 q u u 0 a 9 a a e s a a u 9 u < 1 < 1 5 5 3 % 3 - 2 $ ",
": : : : , ; : > 5 6 < 6 y 9 7 6 9 0 y u y 0 a t y u 1 < 9 6 y 5 5 5 3 % 3 - $ = ",
"> ; : : < : < : ; < : : 1 1 6 y y y u u u 0 0 u a u 6 : y 5 5 5 2 2 3 5 2 - * * ",
": % : : ; < 1 9 ; ; 5 < 5 1 1 1 9 y u 6 y u u u y y 3 5 3 3 3 5 2 2 2 3 = - $ * ",
"% ; ; : : < < 0 1 < 1 y 5 6 1 1 1 y y 6 y y 6 6 y 6 5 5 2 2 3 5 2 2 2 - = - * @ ",
"% : $ ; : < 1 1 1 < 5 y 5 1 6 1 6 6 y y y y 6 6 y 6 6 5 5 : 1 5 ; 2 = = = * * @ ",
"% : ; % % < 9 < 5 5 ; 1 1 6 6 1 y 5 6 < 1 y y 6 1 1 3 5 5 5 5 2 2 - = - - - $ # ",
"$ : : $ % 3 9 < < : ; 5 6 y y 5 6 1 6 5 6 y 6 5 3 5 2 2 5 5 3 3 2 = - = $ = * @ ",
"$ ; : % : : 1 1 < ; 1 1 5 1 y y : 1 5 5 6 6 5 6 < ; % 3 5 5 2 2 - 2 = # # * & @ ",
"# % % : 5 ; < < < 5 < 1 6 5 5 5 : 6 5 : 5 6 3 5 5 ; ; ; 5 2 3 3 2 - = $ $ * & # ",
"$ % % : ; % % : 5 3 5 6 6 5 6 3 3 6 5 2 5 6 5 3 5 2 ; 2 3 3 3 ; 3 - % = % $ # O ",
"# $ ; % $ % $ % ; 2 5 3 3 3 5 : 3 5 6 3 3 5 ; 3 5 2 - - 3 ; 2 ; - - - $ = 2 $ = ",
"@ % $ $ # $ $ % 2 3 5 5 2 5 : ; 3 5 5 3 2 3 ; 5 5 2 % $ - 2 - $ = $ = $ = # $ @ ",
"@ $ @ @ @ $ # # - - ; 5 ; 5 3 3 ; 5 3 5 3 2 2 2 2 % $ $ - % $ $ = = # $ $ $ = @ ",
"@ # @ @ @ $ $ $ % % - - - ; 5 3 ; ; ; ; - - - 2 3 $ % = # $ $ $ # * * = * * * & ",
"@ O @ @ # # $ % $ - 2 2 % ; - - ; % - ; % $ - 2 2 - $ = $ % $ # * * = # * & O + ",
"o O @ @ # # $ ; - % % % - % % - % - ; - $ * = - - % = = = % @ * @ # * & @ O X + ",
"o O @ @ @ # @ % - % % - - % - - - 2 - % = = = = 2 $ = $ $ $ * $ @ * @ @ @ + + O ",
"o o O @ # # @ # $ ; $ $ $ ; $ # - 2 2 ; % = - $ = $ = = = = # # @ @ & O O + + X ",
"o o O O O # # @ $ $ ; $ $ - - $ ; - - $ $ $ = = = # $ = * * & @ @ O @ O O o X   ",
"o o O O o O # $ $ $ % $ # - - - % = $ @ $ # * = $ # - # * * O O + & @ @ O O X   ",
"o o O o @ # @ # $ $ $ $ # # # # % = # # # * @ = = # # # # @ O @ @ O & O + o o   ",
"o o o @ # # # $ # # # $ # $ $ # = = # * # # # # = @ # @ @ O O + O o & O o X X   ",
"X O o O @ # # # # # & @ $ = * # = $ @ $ # O @ # @ @ # # O @ O o o o O O o X   X ",
"o O O O O @ $ # O @ # O & & # # * # @ # # O + # @ & # @ o O @ + X O O O X X   X ",
"o o O @ O # # # O @ @ + + + = = * # # # # # + & * # # @ o O O o o o o X o X     "
};
