/* XPM */
static char *f5f7286c5a854db7f9c4a6a6fda86f03AfKNUwZ7pvKH3lAE[] = {
/* columns rows colors chars-per-pixel */
"40 40 222 2 ",
"   c #2F312F",
".  c #34332D",
"X  c #363A28",
"o  c #393B2D",
"O  c #363534",
"+  c #3A3732",
"@  c #3D3B33",
"#  c #3D3C3B",
"$  c #453A2E",
"%  c #423D34",
"&  c #413E3A",
"*  c #6B3E27",
"=  c #3E550C",
"-  c #3D5017",
";  c #3E4727",
":  c #3E4237",
">  c #41570D",
",  c #424E1D",
"<  c #425614",
"1  c #465B13",
"2  c #495D15",
"3  c #45551B",
"4  c #48561E",
"5  c #475919",
"6  c #4B5C1C",
"7  c #535A1D",
"8  c #784E1B",
"9  c #66561A",
"0  c #46600A",
"q  c #4A630D",
"w  c #4E680C",
"e  c #4C6214",
"r  c #4E6119",
"t  c #506714",
"y  c #516A14",
"u  c #51641A",
"i  c #474827",
"p  c #444D24",
"a  c #43442D",
"s  c #444B2B",
"d  c #4A4E2D",
"f  c #5A452B",
"g  c #455323",
"h  c #465527",
"j  c #495425",
"k  c #4C5B23",
"l  c #4B542C",
"z  c #4D592A",
"x  c #515B2C",
"c  c #434433",
"v  c #4A4434",
"b  c #444C34",
"n  c #4B4C34",
"m  c #44423B",
"M  c #4A443B",
"N  c #454A3B",
"B  c #4D4B3D",
"V  c #514C3E",
"C  c #4B5333",
"Z  c #4D5A37",
"A  c #4C533B",
"S  c #525734",
"D  c #555C33",
"F  c #54543D",
"G  c #595B3B",
"H  c #744F2F",
"J  c #615C35",
"K  c #526321",
"L  c #596729",
"P  c #5B6437",
"I  c #62722E",
"U  c #3D3D44",
"Y  c #3F4045",
"T  c #434444",
"R  c #4D4B42",
"E  c #484947",
"W  c #43444C",
"Q  c #524C42",
"!  c #554D47",
"~  c #4D544B",
"^  c #555243",
"/  c #5A5345",
"(  c #5D5A45",
")  c #545349",
"_  c #5C5549",
"`  c #565A49",
"'  c #5E594C",
"]  c #4A4B53",
"[  c #4C4E57",
"{  c #4D5157",
"}  c #52545D",
"|  c #555A59",
" . c #675947",
".. c #62574A",
"X. c #655B4E",
"o. c #755B49",
"O. c #655E51",
"+. c #695E51",
"@. c #5D6359",
"#. c #646645",
"$. c #63604B",
"%. c #666154",
"&. c #6A6255",
"*. c #6E6559",
"=. c #6B685A",
"-. c #6F6A5A",
";. c #70675A",
":. c #726A5D",
">. c #7C6858",
",. c #75715F",
"<. c #565963",
"1. c #5B5C66",
"2. c #5D5E68",
"3. c #6B5F63",
"4. c #5D6162",
"5. c #5E616B",
"6. c #696266",
"7. c #60636D",
"8. c #756D62",
"9. c #786E62",
"0. c #777065",
"q. c #767665",
"w. c #7A7266",
"e. c #7B7469",
"r. c #6E6F74",
"t. c #9B3E1A",
"y. c #DF3E0E",
"u. c #E43C09",
"i. c #F43E04",
"p. c #81561B",
"a. c #9D5212",
"s. c #A74B17",
"d. c #B7481C",
"f. c #8A4626",
"g. c #934720",
"h. c #88572C",
"j. c #884B30",
"k. c #A24B28",
"l. c #B25432",
"z. c #B25D36",
"x. c #9C603A",
"c. c #B5633B",
"v. c #CB4917",
"b. c #D74914",
"n. c #DA5813",
"m. c #E7470E",
"M. c #EB440B",
"N. c #FD4502",
"B. c #FB4606",
"V. c #F2470C",
"C. c #FC450B",
"Z. c #F44A0C",
"A. c #FC4B0C",
"S. c #FE520E",
"D. c #E94B12",
"F. c #F44B11",
"G. c #FD4D13",
"H. c #ED5819",
"J. c #FE5414",
"K. c #FF5B15",
"L. c #F65C19",
"P. c #FF5D18",
"I. c #EF6219",
"U. c #FF6117",
"Y. c #F1611D",
"T. c #FC6119",
"R. c #C25C28",
"E. c #D85A27",
"W. c #C55C32",
"Q. c #E35622",
"!. c #D3622E",
"~. c #E56326",
"^. c #FC682B",
"/. c #F27036",
"(. c #FE7436",
"). c #885E4F",
"_. c #A35943",
"`. c #9F6A4D",
"'. c #886959",
"]. c #986851",
"[. c #BD6D53",
"{. c #8F756A",
"}. c #B87A62",
"|. c #F97945",
" X c #F08258",
".X c #F8956A",
"XX c #ED9E7F",
"oX c #999691",
"OX c #A19D97",
"+X c #ABAAA7",
"@X c #B8B3AD",
"#X c #BAB8B7",
"$X c #D89D87",
"%X c #E29A80",
"&X c #D6A493",
"*X c #F5A684",
"=X c #FAB99A",
"-X c #C5B3AA",
";X c #D7B9AE",
":X c #DBC5BD",
">X c #CDD2BE",
",X c #F0C1AB",
"<X c #C9C7C5",
"1X c #CCCCCC",
"2X c #CCCFD0",
"3X c #D4D4D4",
"4X c #DCDBDB",
"5X c #EFD0C3",
"6X c #E8D2CA",
"7X c #E5DCD9",
"8X c #F5DCD1",
"9X c #E5E2DC",
"0X c #F5E2D9",
"qX c #DEDFE0",
"wX c #E5E5E4",
"eX c #EAE5E4",
"rX c #ECE9E7",
"tX c #EDECEB",
"yX c #F1EEEB",
"uX c #F2F1ED",
"iX c #F3F3F2",
"pX c #F9F8F8",
/* pixels */
"9.0.0.0. .j q z _ 8.:.8.:.:.:.:.&.Q f p.9 X.8.0.8.R & b ~ <.2.2.{ U # Q *.8.8.8.",
"8.8.,.,.L 0 e A _ -.:.:.:.:.*...M v R.T.H.h.8.8.0.*.V j C [ [ ] T : b C ' 8.8.8.",
"8.8.8.&.u q 2 s B _ *.:.-.O.M % s 9 I.U.S.k.*.:.8.8.&.x 1 r l h 6 s s 1 F ' -.-.",
":.:.:.^ j 6 1 > j n ^ ( B c + O : h.U.P.K.d.O.6.:.*.;.$.r e e r l B A e e D O.-.",
"*.8.+.d > < z 6 w k z 7 g @ O Y { x.U.U.J.b...*.*.&.&.&.n 2 z X.O.%.%.L q K F _ ",
"_ +./ j 1 l / Q D e 2 5 : Y } <.5.!.U.U.K.D.H ( &.&.&.+.m p z &.*.;.:.-.I e k F ",
"Q Q n q 1 S +.+.X.G k ; @ ] <.7.6.~.P.K.J.Z.j.R / &.X./ % . C O.*.;.:.:.-.P e 6 ",
"j l d t u  .X.X.X.X._ : X : { <.'.Y.K.K.S.A.k.b n ^ V % a p n O.*.*.:.:.:.8.P r ",
"< = r e S X...X.X.X.X...d 5 j ~ {..X.X.X.X X[.) z n % a u w l ' &.*.:.:.:.8.8.' ",
"x r 2 6 / X.X.X.X.+.X.X...l q j +XpXiXtXwX4X#X2.: g 5 2 u e h B X.*.*.*.:.8.8.*.",
"/ 6 0 1 / X.X.+.+.+.+.+._ v u y >XpXiXtXwX4X1X2.# ; h G $.B z 6 ^ O.*.*.:.:.:.8.",
"M p t k  .X.X.+.+.+.+.X.M p e I 9XpXiXtXwXqX2Xr.& ^ %.8.8.&.S e 6 F %.;.-.:.:.:.",
"% o 3 x X.X.+.+.+.+.O.M % 3 3 q.uXpXiXtXwX4X3XoX' *.;.:.:.8.X.k w k F / / _ O.=.",
"@ X g / X.+.+.+.+.+.V a , , C OXpXiXiXtXwX4X3X#X8.*.:.:.:.8.8.( j 2 5 i n d d n ",
"p o o M Q / ......& % i c R *.@X0X0X7X6X5X5X<X-X9.*.:.:.:.8.8.-.Q g = 2 q e e e ",
"1 3 p o % & % % % $ % & Q =.w./.(.(.^.^.^.^.^.Q.j.&.;.*.*.:.:.8.( h e 6 y K e e ",
"^ Z k g h o @ @ @ # # R %.q.'.I.U.U.K.K.K.J.A.V.f.) *.;.*.;.:.:.F u 0 k @.4.| | ",
"5.7.<.~ l g R R # @ R O.:.q.`.T.U.U.U.K.K.J.S.V.s.m ( *.;.;.*.+.n 2 1 P 1.4.5.5.",
"5.7.7.2.W N R R # m ' :.:.8.c.U.U.U.K.P.K.J.J.Z.v.i z / / / F M , < C | 5.5.5.5.",
"5.7.7.5.] W # # m / -.:.;.:.!.U.U.P.U.K.K.J.S.Z.b.* < 3 a p 1 5 1 1 A 2.2.2.2.5.",
"7.7.7.7.[ Y # O R X.;.:.-.>.~.U.K.K.U.K.K.K.S.Z.m.8 3 3 l K L S M 4 C <.2.2.2.2.",
"5.5.7.7.<.W U O M ) *.;.-.{.,X=X=X*X*XXXXXXXXX%X$X{.Q _ X.X.+.+./ g k | 2.2.2.2.",
"5.5.7.7.1.W Y a n R X.*.;.OXpXpXiXuXtXtXrXqX4X3X2X+X*.&.+.+.O.O.X.v 5 ^ <.2.2.2.",
"5.7.5.5.1.W T k b R ^ &.;.@XpXiXuXuXtXrXeX9X4X3X1X@X;.&.+.+.+.+.X.Q c m } 2.2.2.",
"5.7.5.} W Y b h m m B _ +.<XpXiXuXyXrXrXwX7X4X3X1X#Xr.*.+.&.+.X.+./ % & [ 1.2.1.",
"1.} { : N h h ( Q @ M c ) 7XpXpXyXyXrXrXwX7X4X3X2X<X{.+.+.+.+.O.X...% % E } 2.2.",
"E E s - < 2 G %._ + O . 6.yXpXpXyXyXrXeXwX7X4X3X2X1XoXO.+.X.X.X.X...M % & W } [ ",
"e 2 q 5 3 e l @ $     O ).=X,X0X0X8X8X7X7X7X6X:X;X&X}.X.+.+.X.X.X...! % % % B l ",
"0 6 D $.&.D 3 o T R _ %.W.P.^.^.(.|.|.|.|.|./.^.H.D.b.o.X.X.X.X.X...V % a 6 y w ",
"D #.:.:.8.F 1 c %.9.w.e.~.P.P.P.P.K.J.K.J.J.A.A.V.m.D.H Q Q Q Q M % % + $ 6 e x ",
":.;.:.:.:._ p c O.0.w.'.H.P.P.P.P.P.P.K.J.J.J.G.V.M.m.f.s $ % $ a a i i ; 3 j X.",
"*.*.;.;.;._ s ; ~ 8.0.`.L.P.J.K.K.J.J.J.J.J.G.G.V.M.m.a.6 4 4 6 ; s g 2 1 < l O.",
"&.*.*.*.>. .* f j.z.W.H.K.P.J.K.J.J.P.J.J.G.G.G.F.F.u.b.g.H P ` { <.{ ` z 2 C O.",
"X.X.+.&.+.z.H.L.S.J.S.A.J.K.K.J.J.J.J.J.J.G.G.G.y.y.m.y.M.D.Q.W._.).3.1.T g n / ",
"c v M v v f s.H.K.K.S.A.C.J.G.J.J.J.G.J.G.G.G.G.u.y.u.u.F.G.A.A.G.F.l.! U o @ % ",
"# # c s 5 s d 9 a.n.K.S.A.B.B.C.B.G.C.A.G.i.i.i.i.i.i.C.A.F.D.b.d.g.8 j g ; # O ",
"R R k k r e 2 2 1 J x.!.K.S.A.N.N.N.N.N.N.N.N.B.C.F.m.d.t.8 9 7 , - = 2 z ^ R R ",
"w.w.0.8.-.P 4 e 6 ' w.w.].W.H.K.S.B.B.B.V.m.v.d.g.* $ o a i C k 4 h = S =.8.0.0.",
"w.e.e.e.e.#.e q x %.0.0.0.0.'.z.E.Q.v.a.p.9 d + O   # { | <.1.1.| T c ) 8.8.0.w.",
"w.w.w.w.0.Z e q x =.8.0.8.:.,.-.-.>. .3 s / X.) m O : <.2.2.5.7.} U # ^ -.8.8.0."
};
