/* XPM */
static char *ae5b465e36164cadeb0cc6820caa9227RK5j3bNnoSwSAkjI[] = {
/* columns rows colors chars-per-pixel */
"40 40 136 2 ",
"   c #34332E",
".  c #3A362F",
"X  c #36382C",
"o  c #3C3B2E",
"O  c #363533",
"+  c #3A3732",
"@  c #3D3B33",
"#  c #3D3D3B",
"$  c #413D35",
"%  c #413E3A",
"&  c #3F432E",
"*  c #3F4135",
"=  c #3F403E",
"-  c #45541D",
";  c #4B5D1E",
":  c #4D621E",
">  c #52661F",
",  c #444E24",
"<  c #42452D",
"1  c #454B2D",
"2  c #494D2D",
"3  c #465225",
"4  c #495624",
"5  c #4D5C24",
"6  c #47502C",
"7  c #4A542B",
"8  c #4E5A2A",
"9  c #505F26",
"0  c #515C2B",
"q  c #444434",
"w  c #484437",
"e  c #464B33",
"r  c #4A4D34",
"t  c #44423B",
"y  c #4A453C",
"u  c #45493B",
"i  c #4C4B3B",
"p  c #514E3F",
"a  c #4C5333",
"s  c #4E5933",
"d  c #4D533A",
"f  c #505635",
"g  c #525A33",
"h  c #52553B",
"j  c #555A3C",
"k  c #585E3A",
"l  c #4F6121",
"z  c #526323",
"x  c #566924",
"c  c #55632A",
"v  c #566530",
"b  c #5B6435",
"n  c #5F6937",
"m  c #5F653E",
"M  c #636C3D",
"N  c #3D3D42",
"B  c #3F4044",
"V  c #434345",
"C  c #4A4740",
"Z  c #4D4B41",
"A  c #44444B",
"S  c #47484C",
"D  c #48494D",
"F  c #514C43",
"G  c #4D5342",
"H  c #4E524D",
"J  c #555344",
"K  c #595346",
"L  c #565C43",
"P  c #5A5B44",
"I  c #565249",
"U  c #5A554A",
"Y  c #525949",
"T  c #5E5A4C",
"R  c #4B4C54",
"E  c #4E4F58",
"W  c #4E5153",
"Q  c #4F5159",
"!  c #515354",
"~  c #565A54",
"^  c #5E5A50",
"/  c #53545C",
"(  c #56595D",
")  c #595D5D",
"_  c #60574C",
"`  c #625A4E",
"'  c #655D52",
"]  c #5D6442",
"[  c #606543",
"{  c #63634C",
"}  c #66684B",
"|  c #666155",
" . c #696156",
".. c #696555",
"X. c #6A6358",
"o. c #6A6459",
"O. c #6C6559",
"+. c #6D655A",
"@. c #6C665B",
"#. c #6D675C",
"$. c #6E675C",
"%. c #6E6B58",
"&. c #6E6A5A",
"*. c #6E685D",
"=. c #6F695F",
"-. c #70695D",
";. c #71695E",
":. c #716A5F",
">. c #726B5F",
",. c #736F5E",
"<. c #565862",
"1. c #565962",
"2. c #575963",
"3. c #575A64",
"4. c #5C5D66",
"5. c #5D5F68",
"6. c #5E5F68",
"7. c #5E6162",
"8. c #5F6069",
"9. c #5F616A",
"0. c #61636B",
"q. c #62636D",
"w. c #62646D",
"e. c #64666F",
"r. c #716A60",
"t. c #716B60",
"y. c #726C61",
"u. c #736C61",
"i. c #736D63",
"p. c #746E63",
"a. c #766F65",
"s. c #767064",
"d. c #767166",
"f. c #787267",
"g. c #797369",
"h. c #656670",
/* pixels */
"a.a.s.s.T 7 z s U t.p.t.t.:.:.:. .F < 9 8 P y.a.y.F % u W <.9.4.! N # Z =.y.p.p.",
"p.p.s.,.b : z d U $.t.:.=.:.X.T y t 8 z 9 h :.a.a.$.Z 8 d W E S V = u d ' =.:.,.",
"p.p.:...c : 8 r Z K ..:.$.` Z $ < 8 z g d d X.p.y.y. .g 5 8 d 7 8 e e 4 h ' =.=.",
":.:.:.K 4 8 5 - 8 i J U i t +   r d i a u t ' $.=.$.$.` c z l c s C d z l j T =.",
"-.:. .r - - g 8 z 8 g 8 7 @ O V / E / / V = I $...$. .' i 5 s ` ` | | n z v F T ",
"U ' K 2 8 a K F k z 5 8 q V E <.4.q.h.h.( V Z T  . . .' w 1 g | O.$.:.%.M : 0 d ",
"F F r 9 z h ' ' ` P 8 q O R <.0.q.w.q.w.q./ V Z U ' ' U $ X r | $.=.$.=.:.M z 8 ",
"8 r r x c ` ` ` ' ` U t X * ! 1.9.w.w.w.9.9.! u p K i $ q 1 u '  .$.:.=.:.p.] c ",
"- - 0 z f ` ` ` ` ` ` _ r 4 s ! <.9.w.9.9.q.6.H 8 r @ q c > s T X.=.$.:.y.p.p.T ",
"k 9 9 5 K ` ` ` ' ' ` ` _ a 5 7 W <.9.9.9.q.q.! t 2 4 5 x 8 r i ` ..o.$.=.:.:.:.",
"K 0 : 5 _ _ ' ' ' `  . .U w c z r H <.4.q.6.! A N * a ] { Z g 8 J ' $.$.:.:.:.:.",
"y 1 z 8 ` ' ' '  . .' ` y 2 9 z l 5 D <./ D B V t J | ,.a.| j l 8 J ` $.=.-.:.:.",
"$ o 5 f ' ' '  .'  .' y $ 4 3 h m c s S V % V C T O.O.:.=.p.T 0 z 0 h J I T '  .",
"+ X 7 K ` ' ' '  .` w w 2 , h $.g.} a u V t % U $.O.:.:.:.p.p.T s z 8 q r w r d ",
"< o $ y F F U ` _ % $ w q F O.f.g.s.| = t I Z y | $.=.:.=.:.p.$.F 3 - 5 z z : l ",
"; 4 < @ $ % $ $ $ $ $ $ F O.a.f.s.y.=.u # U X.t F o.$.$.$.=.p.:.T 7 5 0 x v c 5 ",
"Y h 8 7 7 * # @ @ # # Z | p.p.a.s.s.a.Z @ J =.T t I $.$.o.$.t.$.K 9 5 g | 7.) ~ ",
"9.w.3.W d 7 Z C # + C ' :.p.a.a.s.s.i.U q h ` =.C q T o.$.$.=.' r 0 ; k 8.9.8.8.",
"9.h.h.3.S u C Z % t T :.=.p.:.:.y.y.i.^ 1 7 K :.U 1 g J K J F w , - d ) 8.8.8.8.",
"9.9.w.9.S A # # t U $.:.$.=.:.:.:.:.y.o.r 8 h K w @ 4 7 q 1 5 5 4 ; G 4.4.8.8.8.",
"9.9.h.9.Q B N O C T =.:.t.:.:.:.$.y.:.$.h 5 7 2 3 o 3 4 d v b j i 0 d <.6.6.6.6.",
"9.h.h.9.<.B N O y I o.$.$.-.-.-.$.:.=.:.K z 5 9 9 i K ` _ ` ' ' K 7 0 / 4.4.6.6.",
"9.9.9.9.4.A B q i Z ' $.$.$.$.$.$.$.$.$.P 9 ; 0 U '  . . .' ' ' _ y 7 J 1.6.4.6.",
"9.9.9.9.4.A V 8 r y J  .O.O.:.t.$.X. .' F 2 z c '  .' ..'  .' ' ` F $ V / 4.4.4.",
"9.w.9./ S B u a t t Z U ' ^ T J F y $ @ $ 1 > c P  .'  .'  .' ' ' K $ % R 4.6.4.",
"4./ D V u 6 a Y Z @ u q % @ $ $ 1 q 2 3 5 0 0 z k '  .' ' ' ' ' ' _ % $ C / 4.6.",
"D G e 3 4 8 L | U + O O   X @ 1 8 2 r a g i i 7 f ' ' ' ' ' ' ` ` _ % $ % A / R ",
"5 5 l 4 4 z 7 @ +   O O + t j L T ^ ' ' O.` i y r K ' ' ' ' ' ' _ T K $ $ $ F f ",
"; 8 j { ..g 3 @ t Z U | t.s.s.s.a.s.t.a.;.;._ a 0 h ' ' ` ` ` ` _ U F $ q 8 x x ",
"k } :.:.y.K 4 q | a.g.g.g.g.g.s.a.y.=.=.;.O.' r l 0 p K p F F F w % $ + $ 8 l g ",
"*.O.:.:.:.U 2 e ) s.d.d.g.s.s.s.s.p.=.=.:.-.$.K 8 5 2 $ w $ $ $ q < < < < 4 7 ` ",
"O.O.o.$.=.U q e I i.d.d.d.d.s.s.p.:.:.=.:.:.' $ 4 ; 9 l l 7 5 0 2 e 7 8 5 - d ' ",
" . .O.O.:.U $ q F O.f.s.g.a.a.a.p.:.:.:.$. .` $ 2 8 k ] Y L ] W Q Q / Y s 5 d ' ",
"' '  . .' J . 3 s T ' ' ..X.X.| ' U F F y y $ . o d 4.4.4.4.9.4.9.9.9.4.A 4 a K ",
"t w w t u $ o , , w e w t $ w $ @ + . @ o . . . @ S 3.4.9.<.<.<./ W R A N @ @ q ",
"# # q r 8 2 e 4 - 9 9 9 4 8 7 1 < + .   . o < < 4 G R R S B B B N = e 8 1 * # @ ",
"y Z 0 s z c 5 5 5 k [ { } { ] L J u * @ t i d d 8 e N # O * 6 7 , , - 5 g J S C ",
"g.s.s.a.*.] 8 z 0 T g.g.g.a.p.:.=.X.h a Z i F Z a * O * & e s s 8 7 3 d o.=.s.s.",
"g.g.g.g.g.{ z : g | a.a.a.p.t.:.:.:.P 3 a a e +     # Q 7.( <.7./ B e Y y.y.s.s.",
"g.s.g.g.s.j z ; g $.a.a.t.p.y.:.$.:.T 3 a P ^ I = + # Q 9.9.9.9.( N # I y.s.s.s."
};
