/* XPM */
static char *_4b897cdafad4b06d855e943c8b28441LwMd6i727AFNtmI0[] = {
/* columns rows colors chars-per-pixel */
"40 40 191 2 ",
"   c #060709",
".  c #110F0E",
"X  c #131707",
"o  c #131A03",
"O  c #13140E",
"+  c #151413",
"@  c #181616",
"#  c #171917",
"$  c #1A1A17",
"%  c #161619",
"&  c #1B1A1B",
"*  c #201E1B",
"=  c #1D2019",
"-  c #252F0D",
";  c #282829",
":  c #343127",
">  c #393D24",
",  c #34332D",
"<  c #3B352E",
"1  c #3D3B2D",
"2  c #2D2E34",
"3  c #353534",
"4  c #3A3732",
"5  c #3C3B32",
"6  c #313238",
"7  c #3D3C3C",
"8  c #433D34",
"9  c #423E3A",
"0  c #3C4E0E",
"q  c #3E530C",
"w  c #3C4A17",
"e  c #1B4122",
"r  c #3C422A",
"t  c #3E4728",
"y  c #3D4132",
"u  c #3F413C",
"i  c #2E5D35",
"p  c #366F3D",
"a  c #2D7B37",
"s  c #41590B",
"d  c #414F17",
"f  c #425514",
"g  c #465B13",
"h  c #495E15",
"j  c #45541C",
"k  c #48561E",
"l  c #475918",
"z  c #4A5B1B",
"x  c #505F1F",
"c  c #49620E",
"v  c #4C650C",
"b  c #4D6314",
"n  c #4D6119",
"m  c #516715",
"M  c #424527",
"N  c #434C23",
"B  c #43452B",
"V  c #454B2C",
"C  c #494E2C",
"Z  c #455323",
"A  c #4A5524",
"S  c #475821",
"D  c #4D5B23",
"F  c #4B532B",
"G  c #4D592B",
"H  c #515B2B",
"J  c #444333",
"K  c #494436",
"L  c #454A33",
"P  c #4B4C34",
"I  c #45433A",
"U  c #4B453B",
"Y  c #4D4B3D",
"T  c #504B3E",
"R  c #4C5432",
"E  c #4B523A",
"W  c #545737",
"Q  c #545B32",
"!  c #52523C",
"~  c #535C3B",
"^  c #5D5D3A",
"/  c #566525",
"(  c #566335",
")  c #5D653B",
"_  c #626D33",
"`  c #3D3D43",
"'  c #3E4144",
"]  c #3C5B41",
"[  c #3A7843",
"{  c #434544",
"}  c #4D4A42",
"|  c #484847",
" . c #43444B",
".. c #524D43",
"X. c #4B564C",
"o. c #565244",
"O. c #5A5347",
"+. c #545A42",
"@. c #5B5A45",
"#. c #575248",
"$. c #5B554A",
"%. c #5F594C",
"&. c #464952",
"*. c #4B4C54",
"=. c #4D4F58",
"-. c #4E5255",
";. c #4E505A",
":. c #52545C",
">. c #585A5B",
",. c #605D45",
"<. c #635B4D",
"1. c #645D51",
"2. c #685E51",
"3. c #44774B",
"4. c #4E6F53",
"5. c #616445",
"6. c #646548",
"7. c #666055",
"8. c #6A6255",
"9. c #6F6B55",
"0. c #6C6559",
"q. c #6F6A5A",
"w. c #70675B",
"e. c #726A5D",
"r. c #736B5F",
"t. c #75715F",
"y. c #565760",
"u. c #575A63",
"i. c #5A5C65",
"p. c #5D5F68",
"a. c #5D6562",
"s. c #5E606A",
"d. c #656464",
"f. c #60636D",
"g. c #61646E",
"h. c #756D61",
"j. c #756E62",
"k. c #777064",
"l. c #7B7469",
"z. c #636670",
"x. c #328B3D",
"c. c #32983E",
"v. c #3A8645",
"b. c #399645",
"n. c #349C41",
"m. c #34A342",
"M. c #3AAC48",
"N. c #37B346",
"B. c #38B347",
"V. c #3BB44A",
"C. c #40B44E",
"Z. c #44A851",
"A. c #44B452",
"S. c #43B951",
"D. c #4CB659",
"F. c #4DBD5B",
"G. c #69826D",
"H. c #6F8373",
"J. c #7A8A7D",
"K. c #5CBF69",
"L. c #5EC26A",
"P. c #63C46F",
"I. c #6DC979",
"U. c #848484",
"Y. c #898989",
"T. c #849186",
"R. c #969C97",
"E. c #9AA99C",
"W. c #9BB19E",
"Q. c #9BBD9F",
"!. c #A09FA0",
"~. c #9CBDA0",
"^. c #A7A5A7",
"/. c #ADAEAD",
"(. c #A1B3A3",
"). c #B6B9B7",
"_. c #8FD497",
"`. c #97D79E",
"'. c #9BD8A2",
"]. c #AFC4B1",
"[. c #C2C3C2",
"{. c #CDCFCD",
"}. c #DAD9DA",
"|. c #D5EFD8",
" X c #DFF3E1",
".X c #E5E4E5",
"XX c #EAE7EA",
"oX c #EEF7EF",
"OX c #F0EFF0",
"+X c #F5F8F5",
"@X c #FFFFFF",
/* pixels */
"j.k.j.k.,.A c G $.j.r.r.r.r.r.w.8...B z z @.j.j.j.} 9 L -.u.p.i.=.` I | q.j.j.j.",
"j.j.t.t./ c b ! $.0.j.r.q.r.0.%.U J x b n W j.j.j.0...A R -.=.&.{ u J R 1.q.r.j.",
"j.j.r.8./ c g C T $.2.w.0.1.U 8 B g c H R R 0.h.j.j.8.F g n F S z V V l W 1.0.q.",
"r.r.r.o.j z g s A P #.<.T J 4 4 L F E F L I <.0.h.0.0.6.D b b n G Y E b c W %.j.",
"w.w.8.C q f G z v D F x j 4 3  .=.;.y.=.{ 7 #.0.9.8.8.2.P n G ,.6.7.7./ v n o.$.",
"<.2.O.A g F O.o.Q h b g L { ;.u.s.p.z.z.:. .} %.8.8.8.2.K N G 8.w.w.r.9._ c G ! ",
"T ..P b h ! 2.2.2.^ z y 3 &.u.f.z.p.z.z.s.y.{ } O.2.2.$.8 , P 7.w.w.w.e.r.) h z ",
"A C C m m ,.<.<.2.<.,.I 1 y -.u.z.z.z.z.z.s.;.E P O.T 8 B N P 7.w.w.r.w.r.t._ z ",
"f f d s M U T U U } } 8 > 0 > ' &.=.=.=.=.=.*.y w 1 : : d s B U ..#.$.8.j.j.j.,.",
"F o O @ & * & * * & * * * & & & & & & & & & & & & & & & & & * & & & + * %.j.r.e.",
": ; ).].~.Q.Q.Q.Q.Q.(.(.~.~.~.Q.~.~.~.~.~.~.Q.~.~.~.~.~.Q.].Q.(.{.}.[.7 ; r.r.r.",
"@ d.|.P.S.S.S.C.S.S.S.S.S.S.S.S.S.A.S.b.b.S.S.S.S.S.S.S.V.S.S.P.oX@X@XU.$ w.r.e.",
". d.`.B.V.V.V.V.V.V.V.V.V.V.V.V.V.V.n.e c.V.V.V.V.V.V.V.B.V.B.L.oX@X@XY.+ $.1.0.",
". d._.B.V.V.V.V.V.V.V.V.V.V.V.V.V.m.4.] M.V.V.V.V.V.V.V.V.V.N.L.oX@X@XY.O B F P ",
"X d._.B.V.V.V.V.V.V.V.V.V.V.V.V.M.3.!.[ V.V.V.V.V.V.V.V.V.V.N.K.oX@X@XY.o b v n ",
"o d._.M.V.V.V.V.V.V.V.V.V.V.V.B.[ )./.x.V.V.V.V.V.V.V.V.V.V.B.K.oX@X@XY.o l g l ",
"# d._.B.V.V.V.V.V.V.V.V.V.V.B.x.R.@XJ.n.V.V.V.V.V.V.V.V.V.V.V.L.oX@X@XY.$ , # X.",
"& d._.B.V.V.V.V.V.V.V.V.V.V.x.T.+XOX4.c.V.V.V.V.V.A.V.V.V.V.B.K.oX@X@XY.& 2   ` ",
"& d._.B.V.V.V.V.V.V.V.V.V.n.X.}.@X@X[.H.[ n.V.V.S.D.A.V.V.V.B.K.oX@X@XY.& 2   ; ",
"& d._.V.V.V.V.V.V.V.V.C.A.M.v.4.R..X@X+X^.i C.A.A.A.C.V.V.A.V.K.oX@X@XY.% 2   ; ",
"& d._.B.V.V.V.V.V.V.V.A.A.A.S.A.p /.@X}.G.b.S.A.A.A.A.A.A.A.V.K.oX@X@XY.& 2   ` ",
"& f._.B.V.V.V.V.V.V.V.V.A.V.V.A.3.}..XG.b.V.V.V.V.A.V.A.V.A.V.K.oX@X@XY.& 6 ; u.",
"& d._.B.V.V.V.V.V.V.V.V.V.V.V.m.G.XXH.x.V.V.V.V.V.V.V.V.V.V.B.K.oX@X@XY.% y.u.s.",
"& d._.B.V.V.V.V.V.V.V.V.V.V.V.x.R.J.x.V.V.V.V.V.V.V.V.V.V.V.V.K.oX@X@XY.% u.s.p.",
"& f._.B.V.V.V.V.V.V.V.V.V.V.B.p 0.x.V.V.V.V.V.V.V.V.V.V.V.V.B.K.oX@X@XY.+ u.s.i.",
"& d.'.N.V.V.B.V.V.V.V.V.V.V.M.e a B.V.V.V.V.V.V.V.V.V.V.V.V.B.K.oX@X@XY.+ :.p.i.",
"+ a. XI.F.F.F.F.D.D.F.D.F.F.Z.v.F.F.F.F.F.F.D.F.D.D.F.F.F.D.F.I.+X@X@XU..  .:.*.",
"- = ^./.W.W.W.W.~.E.~.W.W.W.E.E.E.Q.W.W.W.W.W.W.~.E.~.E.~.W.E.~.).[./.2 & 5 E G ",
"s - + @ $ + + + % & $ & % & & & % & % % @ @ @ O + + @ * % @ @ @ + + . @ 1 h m m ",
"H 6.1.1.7.P w r $.7.7.0.0.7.8.8.1.7.1.1.<.2.<.8 s d 8 8 9 9 8 8 4 4 < 4 8 z b H ",
"r.0.r.r.r.%.Z V 1.j.l.l.l.k.k.k.j.j.r.r.r.r.w.T z h N P V 8 8 K B B B M M f z <.",
"w.9.w.w.w.$.B M #.j.k.k.k.k.k.j.j.r.r.w.w.w.8.K l g h h h k z k N C A h g f F 1.",
"8.2.w.w.w.<.4 M Y r.k.k.k.j.j.j.j.r.r.r.0.8.<.8 N S Q ( X.~ ( -.;.:.:.+.G b E <.",
"<.1.2.2.8.O.8 d G $.1.2.0.0.0.8.<.$.....U U 8 < M E u.s.i.p.p.p.s.s.p.i.{ Z P O.",
"I J U U K 8 8 0 f L V K J K J 8 8 1 8 4 1 < < < 5 | u.p.i.i.u.u.:.-.*.| 7 4 8 8 ",
"7 7 J C l C V f f h h x g k k B r < < , < 1 B M j E *.*.&. .' ' ` u L S N r 7 4 ",
"} Y D D n b h h c W ) 6.5.6.) o.! I y 5 K Y G R z L ` 7 3 5 w S N w q b G +.X.{ ",
"l.k.t.r.r.) l b D %.l.l.k.k.h.h.r.0.W F } } } } F r 3 y t Z G D n S q R 0.j.k.k.",
"l.l.l.l.l.5.n c G 7.k.k.k.j.r.r.r.r.@.j Z F V 4 3 , 7 ;.u.>.s.s.:.{ J o.j.j.j.k.",
"k.l.k.l.r.W b c G 0.k.j.h.r.r.r.w.w.@.j Z @.7.o.u 4 u ;.s.s.s.s.:.' 7 o.q.j.k.k."
};
