/* XPM */
static char *_45073aec40c4694c6ad383562013c1dYibhOEs1IzvVkZAd[] = {
/* columns rows colors chars-per-pixel */
"40 40 181 2 ",
"   c #040404",
".  c #0B0404",
"X  c #070804",
"o  c #080905",
"O  c #070909",
"+  c #0B0B0B",
"@  c #130505",
"#  c #1B0606",
"$  c #110F0D",
"%  c #121706",
"&  c #151C05",
"*  c #14150D",
"=  c #0F0F10",
"-  c #100F10",
";  c #0F1010",
":  c #121212",
">  c #181713",
",  c #1C1A16",
"<  c #151518",
"1  c #1C1C1C",
"2  c #220707",
"3  c #230808",
"4  c #2D0A0A",
"5  c #390C0C",
"6  c #221F1B",
"7  c #23221C",
"8  c #232323",
"9  c #292622",
"0  c #2C2B27",
"q  c #2C2C2C",
"w  c #393727",
"e  c #34332D",
"r  c #39372B",
"t  c #363829",
"y  c #3A3C2D",
"u  c #343433",
"i  c #3B3733",
"p  c #3D3B33",
"a  c #3C3B3B",
"s  c #491010",
"d  c #5F1515",
"f  c #651616",
"g  c #7B1C1C",
"h  c #423D2F",
"j  c #423D34",
"k  c #423F3A",
"l  c #3E550B",
"z  c #3C4B14",
"x  c #3E4D1A",
"c  c #3E5312",
"v  c #3C4424",
"b  c #3E432A",
"n  c #3D4133",
"m  c #3F413C",
"M  c #41570D",
"N  c #414E1B",
"B  c #425514",
"V  c #465B13",
"C  c #495D16",
"Z  c #45551C",
"A  c #48571E",
"S  c #465818",
"D  c #4A5C1B",
"F  c #46600A",
"G  c #4A630D",
"H  c #4E680C",
"J  c #4C6214",
"K  c #4E6119",
"L  c #506714",
"P  c #506A11",
"I  c #51641B",
"U  c #434727",
"Y  c #434C24",
"T  c #43442C",
"R  c #444B2C",
"E  c #494D2C",
"W  c #465323",
"Q  c #4A5426",
"!  c #475821",
"~  c #4C5B22",
"^  c #4B532C",
"/  c #4D592B",
"(  c #515B2C",
")  c #434433",
"_  c #494634",
"`  c #444C33",
"'  c #4B4B34",
"]  c #44433B",
"[  c #4A443B",
"{  c #454A3B",
"}  c #4D4B3C",
"|  c #514C3E",
" . c #4B5333",
".. c #4D5A37",
"X. c #4C533B",
"o. c #525734",
"O. c #555C33",
"+. c #54543C",
"@. c #545B3B",
"#. c #5D5D3A",
"$. c #526321",
"%. c #56622A",
"&. c #5B6929",
"*. c #526135",
"=. c #5D6635",
"-. c #5E653B",
";. c #626D33",
":. c #3D3D43",
">. c #3F4045",
",. c #434444",
"<. c #494741",
"1. c #4D4A41",
"2. c #43434C",
"3. c #46484C",
"4. c #484B4A",
"5. c #524C42",
"6. c #584F45",
"7. c #4F5844",
"8. c #4E534E",
"9. c #565244",
"0. c #5A5446",
"q. c #5C5B44",
"w. c #5C554A",
"e. c #535A48",
"r. c #5E594D",
"t. c #4A4B53",
"y. c #4E4F59",
"u. c #4E5255",
"i. c #4F505A",
"p. c #525656",
"a. c #52545D",
"s. c #55595A",
"d. c #595E5B",
"f. c #62574B",
"g. c #645B4E",
"h. c #645D51",
"j. c #695E51",
"k. c #5D6359",
"l. c #616344",
"z. c #666845",
"x. c #62614B",
"c. c #666055",
"v. c #6A6154",
"b. c #6F6B55",
"n. c #6E665A",
"m. c #6F6A5A",
"M. c #70675A",
"N. c #726A5D",
"B. c #75715F",
"V. c #565760",
"C. c #575962",
"Z. c #5B5C66",
"A. c #5D5E68",
"S. c #5D6162",
"D. c #5E616B",
"F. c #60636D",
"G. c #756D62",
"H. c #777064",
"J. c #797266",
"K. c #7B7469",
"L. c #646671",
"P. c #841F1F",
"I. c #8B2020",
"U. c #942323",
"Y. c #992424",
"T. c #A12727",
"R. c #AE2B2B",
"E. c #BB2F2F",
"W. c #C43232",
"Q. c #CA3535",
"!. c #CC3535",
"~. c #D43838",
"^. c #DB3C3C",
"/. c #DF4141",
"(. c #E14444",
"). c #E34B4B",
"_. c #E65151",
"`. c #E95555",
"'. c #ED5C5C",
"]. c #F16464",
"[. c #F76D6D",
/* pixels */
"G.H.H.B.f.Q G Q w.G.N.G.N.m.n.n.v.5.T S S q.G.G.G.5.k ` u.C.A.Z.u.:.m 1.n.G.G.G.",
"G.G.B.B.&.G J X.w.n.G.h.9 6 6 6 , : * & * , 7 8 8 1 7 ! ` u.y.t.,.>.n ..h.N.G.G.",
"G.G.G.v.$.G C E } w.n.f.+ O O + + + + o O + + + +   * Q V K Q ! K R R B o.c.n.m.",
"N.N.N.0.A D V M ! ' 0.[ . = < : + O   .   O * : : + , f.$.J J K / [ X.K G o.g.m.",
"M.N.v.E l B / ~ G ~ ( N o - : + . s P.U.g 5   ; : + , h.' J / r.j.c.c.&.H ~ +.w.",
"0.j.0.Q S Q 0.+.O.L C B o - = . P.~.(.(.(.W.d . - + > g.] Y ( v.n.M.m.b.;.G ~ +.",
"| 5.' C J +.j.j.g.#.~ w   :   f ^.).)._.).(.!.5 + + > 6.) e E j.n.M.N.m.M.=.J D ",
"Q ^ E L I q.g.f.g.g.q.p   + @ R.(._.'.].'.).(.P.  + $ y T Y { j.n.n.N.N.N.B.-.D ",
"B M D J O.g.g.g.g.f.j.| o + 2 W.).`.].[.]._.(.T.. O $ T I H Q f.n.n.m.m.G.G.G.r.",
"( I J C +.g.g.g.g.j.g.6.+ + # E.(._.].[.'._.(.U.. + % V I C W } f.n.n.n.m.G.G.m.",
"0.~ F C f.f.g.j.j.j.j.6.+ + . I.(.).`.'._.).^.d   + : @.x.5.( ~ 9.j.n.n.N.G.m.G.",
"[ Y J ~ f.g.g.j.j.j.j.6.+ ; O 4 E./.(.).(./.Y.@ + + , N.H.h.o.G D +.h.n.m.M.G.M.",
"j w B ( j.g.j.j.j.j.f.j . $ :   4 U.W.Q.E.g # O - + , n.N.G.g.~ G ~ +.9.w.w.g.n.",
"p t Q 0.g.j.v.j.j.j._ h o - : : O . 3 4 #   + : < + , m.N.G.G.q.Q J S E E E E ` ",
"Y y y } 5.6.0.g.f.j j w o - : : : +       = : < : + , n.m.G.G.m.5.A l D G L H K ",
"V S v y j j k j j j j i . : : : O           + : - + , n.n.m.G.G.f.W J D L $.K C ",
"7...~ Z W b a p p a k p O - *     = : < : +   O = + , n.n.M.N.M.+.I M ~ k.k.d.p.",
"D.D.C.u. .Q 1.[ p a 1.5.+ + O   : 1 8 0 8 1 =   = + , v.n.M.m.v.' K G *.Z.D.D.D.",
"D.L.L.Z.3.{ <.1.a <.h.w.+ +   + 1 0 u u q 0 , +   + : 0.0.0.| _ x B  .d.D.D.D.D.",
"D.D.D.D.t.>.a ] ] 0.M.f.+ +   : 1 u a :.a q 1 +   O % N T W B D S V X.Z.A.A.D.D.",
"D.L.D.L.y.2.a u <.r.N.w.+ +   < 8 u >.,.a q 1 +   O % Z ^ $.%.o.[ D  .C.A.D.A.D.",
"F.D.D.D.a.2.:.u [ 0.m.w.+ +   + 1 q u u u 0 1 O   + > w.f.j.j.v.0.! ~ s.Z.A.Z.D.",
"D.D.D.L.Z.2.,.) { 5.h.w.o + O . < 8 0 q 8 1 :   + O , v.j.j.j.j.f.[ A 7.C.A.Z.A.",
"D.D.D.D.Z.2.,.D ` <.6.6.+ ; ;   O < < 1 1 ; O   - + , j.j.j.j.h.g.} j ] V.Z.A.A.",
"D.D.D.i.3.>.{ ^ m ] | [ + ; : +     O       O - : + , j.j.j.j.g.g.f.j k t.Z.A.A.",
"Z.V.u.m m ! ~ e.5.p [ r   ; : : $ +       + : : : + , j.j.j.j.j.j.f.j j <.V.Z.A.",
"4.<.` c c D @.c.w.i i q   + < : + O       + - - : + , g.j.g.g.g.g.f.k j k 2.i.y.",
"V J G S A J Q j p e e q o : : +   O = + +     $ : + , g.j.j.g.g.g.f.6.j j j [ / ",
"F D O.g.v.O.S t ,.1.r.1.+ = +   + < 1 8 < < O   - . 6 f.g.g.g.g.g.f.| j T D P P ",
"O.z.M.N.G.+.S ) h.H.K.h.+ +   + , 8 q q q 8 :   + + : 6.6.| 5.5.[ j j i j D J / ",
"N.n.N.N.N.w.Y ) r.J.K.h.. +   - 8 q a a u q 1 +   + * T E h j h T T U U U B ! g.",
"n.n.M.M.N.w.R Y 9.G.K.r.O +   : 8 u :.,.a q 6 +   O & V C A D A Y R W D V B E j.",
"n.n.n.n.N.w.j b | n.J.h.+ +   < 1 q :.a a 0 1 +   + > *.7.@.7.8.p.p.p.8./ J  .h.",
"f.g.v.v.j.0.h N Q r.v.5.  +   + 1 0 q u q 8 <     + 1 Z.Z.Z.D.S.D.D.A.A.,.W ' w.",
") [ ) [ [ j y c B ' _ w   : +   + 1 1 8 1 < +   + + 1 Z.Z.Z.V.V.a.y.t.4.:.y p j ",
"p a T E S E R S B C J z X + :     + : = ; O   + : O < t.t.2.>.>.:.m R ~ W v a i ",
"<.1.~ ~ K L V C G O.-.+.o ; : : +           + : < + ; a u n x ! Y x l V ( +.4.<.",
"K.K.N.G.m.-.A J ~ r.K.d.+ + ; ; * + + + + = ; = ; o ; y b W ..~ D A c ..n.G.H.H.",
"K.K.K.K.K.l.J G / c.H.h.: + + $ + ; + X + o O O     1 i.C.C.S.S.p.>.) 9.G.G.H.H.",
"H.K.H.J.G.@.J G / n.G.G.j.h.h.f.r.f.| z v 1.0.1.p q i i.D.D.D.D.a.>.m 9.m.G.H.H."
};
