/* XPM */
static char *_6f066aa0b2b470f87484b9c3ddff309YTvmHtZu3kCZZHdB[] = {
/* columns rows colors chars-per-pixel */
"40 40 189 2 ",
"   c #32302C",
".  c #37382B",
"X  c #3B3B2D",
"o  c #353633",
"O  c #3B3733",
"+  c #3D3B34",
"@  c #3D3C3A",
"#  c #423D2F",
"$  c #423C34",
"%  c #423E3A",
"&  c #3E550B",
"*  c #3E4D1A",
"=  c #3E5312",
"-  c #3D4426",
";  c #3C4132",
":  c #3F413C",
">  c #41570D",
",  c #414D1B",
"<  c #425514",
"1  c #465B13",
"2  c #495D15",
"3  c #45551C",
"4  c #48571E",
"5  c #465818",
"6  c #4A5C1B",
"7  c #46600A",
"8  c #4A630E",
"9  c #4E680C",
"0  c #4C6214",
"q  c #4D611A",
"w  c #506714",
"e  c #516716",
"r  c #434727",
"t  c #434C25",
"y  c #43442D",
"u  c #444C2C",
"i  c #494C2D",
"p  c #455323",
"a  c #465626",
"s  c #4A5426",
"d  c #4C5B22",
"f  c #4A542C",
"g  c #4D592A",
"h  c #515B2C",
"j  c #434334",
"k  c #494437",
"l  c #444C33",
"z  c #4B4C34",
"x  c #44423B",
"c  c #4A443B",
"v  c #454A3B",
"b  c #4D4B3C",
"n  c #514C3E",
"m  c #4C5433",
"M  c #4D5A37",
"N  c #4C533B",
"B  c #475D38",
"V  c #525734",
"C  c #555C33",
"Z  c #54543D",
"A  c #545B3C",
"S  c #5D5D39",
"D  c #526322",
"F  c #56622A",
"G  c #5B6929",
"H  c #5B6437",
"J  c #626D33",
"K  c #3D3D43",
"L  c #3D4245",
"P  c #434444",
"I  c #494741",
"U  c #4D4B42",
"Y  c #43434C",
"T  c #444B4B",
"R  c #484B4A",
"E  c #524C42",
"W  c #584F45",
"Q  c #4E5B42",
"!  c #455349",
"~  c #4C534E",
"^  c #455B4D",
"/  c #565244",
"(  c #5A5346",
")  c #5C5B45",
"_  c #55564A",
"`  c #5C554A",
"'  c #5D5A4B",
"]  c #4A4B53",
"[  c #4E4F59",
"{  c #445455",
"}  c #4D5453",
"|  c #465B53",
" . c #43555C",
".. c #4C545B",
"X. c #465A5B",
"o. c #4A595D",
"O. c #525656",
"+. c #555956",
"@. c #52545D",
"#. c #595E5B",
"$. c #62574B",
"%. c #645B4D",
"&. c #685C4F",
"*. c #655E52",
"=. c #695E51",
"-. c #52614D",
";. c #4E754F",
":. c #517D4A",
">. c #47625F",
",. c #4B675F",
"<. c #4C6A5C",
"1. c #5D6359",
"2. c #4E7451",
"3. c #577D58",
"4. c #636448",
"5. c #666054",
"6. c #6A6155",
"7. c #6F6B55",
"8. c #6E665A",
"9. c #6E6A5B",
"0. c #70675B",
"q. c #726A5D",
"w. c #75715F",
"e. c #445A64",
"r. c #4C5C62",
"t. c #475D68",
"y. c #485F69",
"u. c #565760",
"i. c #535D62",
"p. c #5A5C66",
"a. c #5D5E68",
"s. c #476061",
"d. c #4B626D",
"f. c #546164",
"g. c #5D6161",
"h. c #5E616B",
"j. c #4E6671",
"k. c #506671",
"l. c #526A75",
"z. c #546E7A",
"x. c #586F79",
"c. c #59727E",
"v. c #616765",
"b. c #6D6B63",
"n. c #60636D",
"m. c #746D61",
"M. c #746D62",
"N. c #777064",
"B. c #787166",
"V. c #7B7469",
"C. c #646671",
"Z. c #5C9B34",
"A. c #5FA22E",
"S. c #5FA130",
"D. c #61A72B",
"F. c #6AB627",
"G. c #6CBC22",
"H. c #76B93F",
"J. c #71C323",
"K. c #77C927",
"L. c #7BCC2B",
"P. c #7EC63C",
"I. c #548444",
"U. c #5F8C53",
"Y. c #62934E",
"T. c #6A9E51",
"R. c #6CA646",
"E. c #71AD49",
"W. c #6FA750",
"Q. c #85D435",
"!. c #84D139",
"~. c #8CDC3B",
"^. c #91E23E",
"/. c #93E541",
"(. c #97E945",
"). c #99EB47",
"_. c #9BED49",
"`. c #5D7581",
"'. c #617784",
"]. c #637A86",
"[. c #627B87",
"{. c #657D88",
"}. c #6B828D",
"|. c #6D8591",
" X c #708793",
".X c #728995",
"XX c #768D99",
"oX c #788F9B",
"OX c #79909C",
/* pixels */
"M.N.N.N.$.s 8 g ` M.q.q.q.q.0.q.6.E j 2 4 ) M.B.M.E % v ~ p.a.p...K % U 9.M.M.M.",
"M.M.w.q.G 7 0 m ` 9.b.f.f.f.i.,.o.] { ^ ^ o.i.f.f.r.{ { ! } [ ] P @ j m *.q.q.q.",
"M.N.q.7.D 0 2 i b ` 1.e.e.e.e.e.e.k.c.'.`.l.s.e.e.e.e.e.^ d f p 2 l u < V 5.9.q.",
"q.q.q.( 3 2 2 > p z } e.e.e.e.e.'..XOXOXOXOX}.j.e.e.e.e.| 0 0 q g b N 0 0 V ' 9.",
"8.q.6.i & < g 6 8 d ! e.e.e.y.{.OXoXoXoXoXoXXX`.d.e.e.e.| q f -.&.5.5.G 9 D Z ` ",
"` 6.( s 5 f ( / h 0 M e.e.e.x.oXoXoXoXoXoXXX].z.j.e.e.e. .p h 6.8.0.q.7.J 8 g Z ",
"n E z 2 0 V =.&.&.S Q e.e.r.{.OXoXoXoXoXXX].z.z.z.t.e.e. .. i 6.8.0.q.9.8.H 2 6 ",
"s f i e e $.$.%.&.$.+.e.e.y..XoXoXoXoXXX].x.z.z.z.d.e.e.{ t k &.8.0.q.q.q.w.J 6 ",
"< > q 0 V %.%.%.%.%.+.e.e.d..XoXOXXXXX{.z.z.z.z.z.d.e.e.| 8 g ' 8.8.q.9.q.M.M.' ",
"h q 2 2 Z %.&.&.%.&.+.e.e.r.}.OXXXXX].z.z.z.z.z.z.d.e.e.| q p b %.8.8.8.q.M.M.9.",
"( q 7 2 ( &.&.=.=.&.#.e.e.e.'.oXXX{.z.z.z.z.z.z.l.e.e.e.X.b g d / =.8.8.q.q.q.M.",
"c t 0 d $.%.&.=.=.=.#.e.e.e.y.}.{.z.z.z.z.z.z.z.d.e.e.e.r.5.V 0 5 Z *.0.0.q.q.q.",
"$ X 5 h %.=.=.=.=.=.#.e.e.e.e.y.l.z.z.z.z.z.z.j.e.e.e.e.r.M.' g 8 D Z / ` ` *.8.",
"X . 4 ( %.=.=.=.=.&.~ e.e.e.e.e.e.j.z.`.c.k.>.e.e.e.e.e.f.M.M.) s 1 5 u i i i z ",
"r X X c E W ` %.$.c Y e.e.e.e.e.j.{. XXX.X}.c.d.e.e.e.e.r.M.M.q./ 3 & 0 8 0 9 0 ",
"1 5 - ; $ $ $ $ $ $ T e.e.e.e.l..XoXOXXXOXoXXXc.e.e.e.e.r.q.q.q.$.s 2 6 w D q 6 ",
"Q M d p p + + $ + @ T e.e.e.k..XoXoXoXoXOXoX|.c.d.e.e.e.e.9.q.q.Z q 7 d 1.1.#.O.",
"n.h.u.~ f p U I @ O T e.e.e.'.OXXXOXoXoXXX|.c.z.l.d.e.e.s.8.0.*.z 0 0 C f.h.h.h.",
"n.C.C.p.T v U U @ c O.e.e.r. XoXoXoXoXoX|.c.z.z.z.d.e.e.o.( n z , < m #.h.a.h.h.",
"h.n.n.a.] Y @ @ x _ #.e.e.d..XoXoXoXoX|.`.z.z.z.z.d.e.e. .t 2 5 3 < N a.a.a.h.h.",
"h.n.n.n...Y O O b ' g.e.e.y. XOXoXoX|.c.z.z.z.z.z.d.e.e.| D F C z d f u.a.a.a.h.",
"h.n.n.n.@.Y K o c ( #.e.e.e.{.oXoX|.c.z.z.z.z.z.z.y.e.e.o.5.=.=.W s g O.a.a.a.a.",
"h.h.h.n.p.Y L ; b U O.e.e.e.l..X|.c.z.z.z.z.z.z.j.e.e.e.e.=.=.&.%.k 4 N p.a.p.a.",
"h.h.n.h.p.Y P d i b } e.e.e.e.z.c.z.z.z.z.z.z.l.t.e.e.e.o.=.=.=.%.E j P ..p.a.a.",
"h.n.a.u.Y K v f x j } e.e.e.e.e.d.z.z.z.z.z.j.y.e.e.e.e.o.5.&.&.&.W $ % [ p.a.p.",
"p.@.] v v p a / E + T e.e.e.e.e.e.3.T.W.W.U.,.e.e.e.e.e.r.=.&.&.&.$.% $ c @.a.a.",
"T b l = < 2 A 6.' + L e.e.e.e.<.R.!.~./.~.~.H.3.e.e.e.e.r.%.%.&.&.$.% $ % Y @.] ",
"2 2 8 5 3 0 s $ @   L e.e.e.s.E.~.(._._.).)./.F.2.e.e.e.o.*.&.%.$.$.( $ $ $ b h ",
"7 6 C &.6.h 5 . x E ..e.e.e.U.~.(._._._._.).~.K.D.e.e.e.e.%.&.%.$.$.n $ ; 6 w w ",
"C 4.9.M.M./ 5 j *.M.v.e.e.e.H.^._._._._._.~.Q.Q.F.2.e.e.o.E E n c % $ $ # 6 0 D ",
"q.8.0.q.q.` p j *.N.v.e.e.<.P.(._._._.).~.Q.Q.Q.J.:.e.e.{ j $ y y y r r r < s %.",
"8.8.0.0.0.` u t / M.v.e.e.<.P.)._._.).~.Q.Q.Q.Q.J.I.e.e.| 4 5 4 t u a 2 1 < f &.",
"6.8.8.8.q.$.# - n 0.v.e.e.e.H.^._._.~.Q.Q.Q.Q.Q.G.;. .e. .A -._ ..@.O._ g 0 m %.",
"$.&.6.6.6.( # , s ' #.e.e.e.Y.~.(.~.Q.Q.Q.Q.Q.K.A.>.e.e.r.p.p.g.a.a.a.p.P p z ` ",
"x k k j c $ # < 3 i R e.e.e.,.H.L.Q.Q.Q.Q.Q.L.F.:.e.e.e.r.p.i.@.@.[ ] R @ o @ $ ",
"O $ j i 5 r r 5 < 2 B e.e.e.e.<.S.G.K.L.L.K.F.:.e.e.e.e. .Y Y L K % u d p - @ o ",
"U U D d q 0 1 2 2 C -.e.e.e.e.e.s.:.Z.A.Z.Z.<.e.e.e.d.d.L : p p t * & 2 g / U U ",
"B.B.N.9.9.H 6 w d ' b.f.r.r.y.r.r.r.e.X.e. .e. .d.L L e.L B m D 6 3 = m 9.q.M.N.",
"V.V.V.V.V.-.w 8 g 5.B.M.M.b.9.9.9.8.) p u f l @ o o L @.<.1.p.f.O.P ; / M.N.N.B.",
"B.V.B.B.N.A w > g 8.B.M.M.q.M.M.q.q.) < a / ' _ : o : @.h.h.h.h.u.K x _ 9.M.N.N."
};
