/* XPM */
static char *_490dd73e5dd4352d89d5385caddb028GYugQqOViAryRfkz[] = {
/* columns rows colors chars-per-pixel */
"40 40 219 2 ",
"   c #1A080C",
".  c #131807",
"X  c #13130D",
"o  c #0E0D10",
"O  c #120E11",
"+  c #1A0D11",
"@  c #141313",
"#  c #1A1515",
"$  c #161519",
"%  c #1E1519",
"&  c #1B1A1C",
"*  c #2C060C",
"=  c #3B060E",
"-  c #290E16",
";  c #340A12",
":  c #25171B",
">  c #1E1E23",
",  c #221D21",
"<  c #301C25",
"1  c #242225",
"2  c #282526",
"3  c #2B292D",
"4  c #312B2E",
"5  c #373A27",
"6  c #35332D",
"7  c #3A352D",
"8  c #3C3B2E",
"9  c #2F2D31",
"0  c #362D32",
"q  c #353434",
"w  c #3A3732",
"e  c #3D3B33",
"r  c #34363C",
"t  c #3D3C3C",
"y  c #44030D",
"u  c #57050F",
"i  c #460812",
"p  c #570714",
"a  c #56121D",
"s  c #65030F",
"d  c #650412",
"f  c #6C0613",
"g  c #6B0916",
"h  c #730414",
"j  c #790B15",
"k  c #790816",
"l  c #69121E",
"z  c #491822",
"x  c #531924",
"c  c #6A1627",
"v  c #7C1527",
"b  c #423D34",
"n  c #403638",
"m  c #423E3A",
"M  c #7E2B3B",
"N  c #6C3237",
"B  c #3E550B",
"V  c #3C4A19",
"C  c #3F5312",
"Z  c #3C4323",
"A  c #3D422B",
"S  c #3F4929",
"D  c #3E4136",
"F  c #41570E",
"G  c #425414",
"H  c #475C14",
"J  c #495E15",
"K  c #45551C",
"L  c #48561E",
"P  c #475A18",
"I  c #4A5C1C",
"U  c #48630B",
"Y  c #4A630D",
"T  c #4C6214",
"R  c #4D611A",
"E  c #506614",
"W  c #506A11",
"Q  c #51641A",
"!  c #454827",
"~  c #444D24",
"^  c #43442C",
"/  c #444B2C",
"(  c #4A4E2D",
")  c #455323",
"_  c #4A5525",
"`  c #475821",
"'  c #4C5B23",
"]  c #475629",
"[  c #4B542B",
"{  c #4D592A",
"}  c #515B2C",
"|  c #444433",
" . c #494535",
".. c #464C33",
"X. c #4B4C33",
"o. c #44423B",
"O. c #4B453B",
"+. c #474C3E",
"@. c #4D4C3C",
"#. c #514B3E",
"$. c #4D5432",
"%. c #4D5A37",
"&. c #4B523A",
"*. c #525735",
"=. c #545B33",
"-. c #54543C",
";. c #545B3B",
":. c #5A5E3B",
">. c #556524",
",. c #5B6537",
"<. c #626D33",
"1. c #3D3D43",
"2. c #3F4045",
"3. c #434445",
"4. c #4D4B42",
"5. c #44444B",
"6. c #484848",
"7. c #534C42",
"8. c #584F45",
"9. c #4F5844",
"0. c #4D534C",
"q. c #555244",
"w. c #5A5345",
"e. c #545A45",
"r. c #5C5A45",
"t. c #57534A",
"y. c #5C554A",
"u. c #5E5A4C",
"i. c #4A4B53",
"p. c #4C4955",
"a. c #574555",
"s. c #4D5155",
"d. c #4E505A",
"f. c #52545C",
"g. c #565858",
"h. c #7D4C4F",
"j. c #65584C",
"k. c #655B4D",
"l. c #7A4D58",
"z. c #655E51",
"x. c #695E51",
"c. c #6E585B",
"v. c #626545",
"b. c #63624B",
"n. c #666154",
"m. c #6A6255",
"M. c #6A6657",
"N. c #6D6559",
"B. c #6F695B",
"V. c #70675B",
"C. c #7C665C",
"Z. c #726A5D",
"A. c #75715F",
"S. c #545760",
"D. c #5B5660",
"F. c #565963",
"G. c #5B5C65",
"H. c #5D5F69",
"J. c #615B69",
"K. c #5C6063",
"L. c #5E616B",
"P. c #60636D",
"I. c #796760",
"U. c #756E62",
"Y. c #777065",
"T. c #797166",
"R. c #7B7469",
"E. c #646670",
"W. c #6B6772",
"Q. c #776D79",
"!. c #76727C",
"~. c #7B757B",
"^. c #850616",
"/. c #8A0718",
"(. c #A20B1B",
"). c #960D21",
"_. c #931326",
"`. c #A61527",
"'. c #B3182C",
"]. c #AB1C33",
"[. c #B81B34",
"{. c #8A2A3A",
"}. c #95273C",
"|. c #AD243A",
" X c #CA1B36",
".X c #CB233D",
"XX c #9B3540",
"oX c #AD2E49",
"OX c #BB3855",
"+X c #D03A4E",
"@X c #C83A55",
"#X c #D83854",
"$X c #9C464D",
"%X c #B44B53",
"&X c #985B64",
"*X c #AF4F65",
"=X c #AB5D6A",
"-X c #B95369",
";X c #8F666A",
":X c #87787B",
">X c #B86B78",
",X c #A87079",
"<X c #CE425E",
"1X c #D44459",
"2X c #C95B74",
"3X c #E34B68",
"4X c #EA5E77",
"5X c #C86A78",
"6X c #868079",
"7X c #7D7782",
"8X c #8E7D85",
"9X c #957784",
"0X c #C76F84",
"qX c #D27283",
"wX c #CD7D92",
"eX c #918D8E",
"rX c #AB9199",
"tX c #AA99A2",
"yX c #D78D9D",
/* pixels */
"U.Y.Y.A.k._ Y { y.U.Z.Z.U.B.Z.Z.m.7.^ P I r.U.T.U.7.t ..s.S.L.G.d.1.D 4.B.U.U.U.",
"U.U.Z.A.>.Y T -.y.B.U.Z.Z.Z.M.k.O.| I T I *.Z.U.Y.N.#._ $.s.i.i.3.D | &.z.Z.B.U.",
"U.U.U.M.>.U H / 7.w.m.V.N.z.O.b ^ P T } $.$.N.Z.U.U.x.} H I ] ] I / ~ P *.k.B.B.",
"Z.Z.Z.q.L I H F L X.q.k.#.| w 6 ..$.$.[ | o.z.Z.B.B.Z.k.R W T R { 4.&.Q T *.k.B.",
"B.Z.x.*.B G _ ' Y ' } ' L w q 5.f.d.S.f.3.D t.m.V.m.z.x.X.J { k.k.n.n.>.Y ' -.y.",
"y.x.8.~ H [ w.-.=.T J H | 3.d.F.L.H.E.E.S.5.4.k.m.m.m.x.o.~ } n.V.V.Z.M.<.T ' -.",
"7.7.X.Y T *.x.x.k.:.' S q i.F.L.L.P.P.P.L.S.3.4.y.x.z.y.b 5 X.n.N.V.Z.B.Z.<.T P ",
"_ [ ( T Q j.j.k.k.k.y.D 5 D d.F.P.P.E.P.L.L.d...@.q.@.b ^ ~ X.k.N.V.Z.Z.Z.A.,.R ",
"G F T T *.j.j.j.j.j.k.j.( H [ 0.F.H.L.L.L.P.H.0.' X.b ^ R Y { k.n.V.Z.Z.Z.U.U.u.",
"} I J J q.k.k.x.k.x.k.j.k._ Y _ s.F.L.L.L.P.P.f.| ) K I T R ) @.k.N.N.N.Z.Z.U.Z.",
"q.' U H :.j.j.x.x.x.x.x.y. .Q Y ] s.f.H.P.L.f.1.t / ) ,.b.@.{ I 8.z.N.N.Z.Z.Z.Z.",
"O.~ T ' j.x.j.x.x.x.x.k.O.~ R U T H 0.f.f.i.3.t 3.7.z.U.U.n.*.T I -.x.V.Z.Z.Z.Z.",
"b 5 P *.k.k.x.x.x.x.k.O.b K ~ *.,.E ] 6.3.1.m 6.k.V.V.Z.Z.U.k.' Y I -.y.y.y.z.N.",
"b 5 ) w.k.x.m.x.m.k.O.^ ~ K $.Y.T.v.{ o.o.3.o.y.N.V.B.Z.Z.U.U.r._ J L ~ ( ( ( X.",
"! 5 e O.7.w.w.j.j.O.e ~ A 7.M.T.T.R.B.t.s.z.3.e b.B.Z.Z.B.B.U.B.7.L B J Y E Y T ",
"H P Z A b m b m b b e m 4.N.R.:X6X~.!.!.7X8X~.W.:X>X>X=X&X;XI.I.k.( J I T >.R J ",
"9.%.{ ` ) e e t b n b a.R.eXeX!.J.D.H.J.W.!.9X>X4X3X1XqX4X3X-X=X&Xh.N h.$Xh.F.g.",
"P.P.g.0.] ) 4.t.c.l.;XrXtX9Xa.p.p.a.a.a.l.-X@X.X].c z }.#X#X#X<X2X0XwX-X}.M H.L.",
"P.P.P.L.f.C.>X5XqX0XyXwX*XXXoXoXOX@X@X<X3X3X#X|.v v ).).).k g p g _.}.v h x D.L.",
"L.E.~.:X5X1X}.N x {.%X+X|.a [. X X[.[.'.`.`.`.)./.^.h h u - q > > * d h g < S.P.",
"L.8X,X$X'.l , 1.> 4 z h h f k k h h k j j j j j j j k d - $ < $ , 9 * p i , 6.P.",
"L.Q.%X`.h < > , 3 n 4 i f f h k v k k k j g s f f h h u > , # 1 , , + y = O i.H.",
"P.8XXX(.h 0 r 2 7 : 4 i ^././.^.k h d p = i i u u s d y , 2 % 1 > > O *   3 F.H.",
"J.c.N a a : > 3 $ 1.3 ; a x a z i < : : # # X   * = i * O $ : O , 2 o O 1 d.H.H.",
"L.F.r > @ o & 9 1 > o @ @ @ @ @ @ @ X X X . . . X : % # # % 2 & % # & 2 t f.H.H.",
"G.f.5.D A V Z D e 2 6 8 7 6 6 6 V 5 Z V G C ~ F ~ -.w.w.q.#.O.O.#.8.m b 3.f.H.H.",
"6.+./ G G J 9.M.y.w w q 6 6 A ) K / ..] { @.@.L } k.x.x.x.x.x.x.j.j.O.b m 5.S.i.",
"I T T G L T _ e e 6 6 q e o.%.;.u.u.n.n.M.n.O.X.( y.x.x.k.x.j.x.j.j.8.b b A +.{ ",
"Y I =.k.n.} K 7 3.4.y.n.B.Y.T.Y.Y.Y.Z.Z.Z.V.y._ I -.x.x.k.j.x.j.k.y.#.n ^ J W W ",
"*.v.Z.Z.Z.e.H | z.Y.T.R.R.R.T.Y.Y.Y.Z.Z.Z.V.m.X.Y I #.8.7.7.7.#.O.b b w b I R } ",
"Z.Z.V.Z.Z.y.~ / z.U.T.T.T.Y.Y.Y.Y.Y.Z.Z.Z.Z.N.#.P J ~  .! b b b ^ ^ ! ~ ^ G ` k.",
"N.N.V.V.Z.y./ ! q.U.T.Y.Y.Y.Y.Y.Z.Z.Z.B.V.V.M. .L J T J J H L I ! / ) I J F [ x.",
"M.M.N.N.Z.y.b e X.Z.T.Y.Y.Y.U.Y.U.Z.N.Z.N.N.k.b ~ ` =.,.9.;.;.0.d.s.f.e.] I $.k.",
"j.k.k.m.x.w.b K ' y.z.z.N.m.N.n.z.y.7.7.O.O.b 7 Z &.F.L.H.L.L.H.L.L.H.G.3.K X.y.",
"o.o. . .O.b 8 G K  . . . .m | b b e e e 7 7 7 7 e 6.F.H.G.G.F.f.f.d.i.6.1.e e b ",
"e o.| ( I ~ / G G J Y I P L L ~ ! 7 6 7 w 8 ! ! L &.i.i.5.5.3.2.1.D / { ~ Z t q ",
"4.@.' ' R T J J T =.,.v.v.v.,.r.-.o.A w o.@.{ $.I ..1.r q A ) K S C B H { ;.0.4.",
"T.Y.Y.U.A.,.P T ' u.R.T.T.I.U.Z.B.N.;.( @.@.7.4.[ A q 8 S ] %.' I ` C $.M.U.U.Y.",
"T.R.R.R.T.v.T U [ M.Y.Y.I.U.U.Z.Z.Z.r.K ] [ | e q 6 t d.g.F.G.K.g.2.| t.U.U.U.T.",
"T.T.T.T.U.;.T H { B.Y.Y.Y.U.Z.Z.N.Z.r.K _ q.u.t.D q 1.f.L.L.L.L.f.1.D t.B.U.Y.Y."
};
