/* XPM */
static char *_98dac531858428cf03303efe86af4bfMTOQbOxnpPELjeuP[] = {
/* columns rows colors chars-per-pixel */
"40 40 231 2 ",
"   c #020202",
".  c #070706",
"X  c #0C0B0B",
"o  c #110F0F",
"O  c #141203",
"+  c #151509",
"@  c #100E11",
"#  c #141314",
"$  c #1C1B13",
"%  c #171619",
"&  c #1C1C1A",
"*  c #211D15",
"=  c #2B2505",
"-  c #3A320D",
";  c #28281A",
":  c #332E15",
">  c #363619",
",  c #1C1C22",
"<  c #201F21",
"1  c #242324",
"2  c #252427",
"3  c #2E2B25",
"4  c #2A2A2C",
"5  c #312E28",
"6  c #2F3520",
"7  c #373724",
"8  c #34332D",
"9  c #3B362E",
"0  c #3C3B2C",
"q  c #2F3033",
"w  c #353536",
"e  c #393732",
"r  c #3C3B33",
"t  c #34353C",
"y  c #3D3D3C",
"u  c #453B09",
"i  c #453D16",
"p  c #433D34",
"a  c #413E3A",
"s  c #37490D",
"d  c #3E540B",
"f  c #3B4B12",
"g  c #3B4718",
"h  c #3C4225",
"j  c #3D4229",
"k  c #3F4929",
"l  c #3E4138",
"z  c #4A4108",
"x  c #544909",
"c  c #454D1C",
"v  c #554B15",
"b  c #425514",
"n  c #475C14",
"m  c #495E15",
"M  c #45551B",
"N  c #48561F",
"B  c #475A18",
"V  c #4A5C1C",
"C  c #575919",
"Z  c #635508",
"A  c #625C1D",
"S  c #48630A",
"D  c #4A630E",
"F  c #4C6214",
"G  c #4D611A",
"H  c #506813",
"J  c #51631A",
"K  c #7A6804",
"L  c #776A19",
"P  c #414427",
"I  c #434B24",
"U  c #43442C",
"Y  c #444B2C",
"T  c #4A4D2C",
"R  c #534D24",
"E  c #455323",
"W  c #4A5524",
"Q  c #475821",
"!  c #4D5C23",
"~  c #475629",
"^  c #4B542B",
"/  c #4D592A",
"(  c #54572A",
")  c #515B2B",
"_  c #444334",
"`  c #484636",
"'  c #454A33",
"]  c #4B4C34",
"[  c #44423B",
"{  c #4A443A",
"}  c #4D4B3D",
"|  c #514C3D",
" . c #4C5432",
".. c #4D5937",
"X. c #4B5239",
"o. c #525635",
"O. c #545B33",
"+. c #54543C",
"@. c #595A39",
"#. c #665E34",
"$. c #566525",
"%. c #5D702D",
"&. c #5C6536",
"*. c #6C6A29",
"=. c #746829",
"-. c #626D34",
";. c #776A3D",
":. c #3C3D43",
">. c #3F4146",
",. c #434445",
"<. c #4D4A42",
"1. c #44444A",
"2. c #494A4A",
"3. c #524D43",
"4. c #544E48",
"5. c #4C5349",
"6. c #555244",
"7. c #5A5346",
"8. c #565A46",
"9. c #5C5A45",
"0. c #555149",
"q. c #5B554A",
"w. c #5E594D",
"e. c #4B4C53",
"r. c #494B55",
"t. c #524F53",
"y. c #4D5155",
"u. c #4E505A",
"i. c #5F5951",
"p. c #545758",
"a. c #52545C",
"s. c #615846",
"d. c #645B4D",
"f. c #645D52",
"g. c #695D51",
"h. c #625D58",
"j. c #5D6259",
"k. c #616346",
"l. c #686647",
"z. c #736B47",
"x. c #666054",
"c. c #6A6255",
"v. c #6B6758",
"b. c #6D665A",
"n. c #6F695B",
"m. c #70675A",
"M. c #726A5D",
"N. c #79745B",
"B. c #545760",
"V. c #565963",
"C. c #5B5C66",
"Z. c #5D5F69",
"A. c #5D6162",
"S. c #5E616B",
"D. c #6A6967",
"F. c #61636C",
"G. c #60636D",
"H. c #756D61",
"J. c #756E62",
"K. c #767064",
"L. c #797266",
"P. c #7B7469",
"I. c #7B776C",
"U. c #656870",
"Y. c #816F06",
"T. c #8E7904",
"R. c #907B08",
"E. c #857617",
"W. c #807850",
"Q. c #857C70",
"!. c #9A850A",
"~. c #8C8016",
"^. c #998616",
"/. c #A58E04",
"(. c #AC9406",
"). c #B89B05",
"_. c #A38F18",
"`. c #A79614",
"'. c #BCA206",
"]. c #BCA718",
"[. c #958626",
"{. c #A7962B",
"}. c #B9A52A",
"|. c #B4A23B",
" X c #F49C0D",
".X c #C3A907",
"XX c #CCB104",
"oX c #D2B404",
"OX c #D9BC05",
"+X c #DBBF0F",
"@X c #C8B215",
"#X c #D9BE17",
"$X c #EAB208",
"%X c #D9BD28",
"&X c #C5B133",
"*X c #D6BC36",
"=X c #DFC30A",
"-X c #E3C404",
";X c #E9C907",
":X c #F2CD02",
">X c #F9C903",
",X c #EFD005",
"<X c #F4D302",
"1X c #F9D501",
"2X c #FCDB02",
"3X c #F3D40B",
"4X c #FADA0B",
"5X c #E9CB15",
"6X c #F0CF15",
"7X c #F7D719",
"8X c #FEE307",
"9X c #FFE418",
"0X c #D9C129",
"qX c #EFD42C",
"wX c #FFE52E",
"eX c #9B9449",
"rX c #898156",
"tX c #968B55",
"yX c #A3974F",
"uX c #B4A448",
"iX c #B6B14D",
"pX c #B5A558",
"aX c #898B66",
"sX c #91877A",
"dX c #A5956D",
"fX c #BEAB6C",
"gX c #A0A37E",
"hX c #BFB775",
"jX c #C3AC53",
"kX c #DBCE88",
"lX c #D5CFAA",
/* pixels */
"J.K.J.K.s.W D ~ q.J.M.M.J.M.M.M.g.4.U B V q.J.K.J.3.y ' 5.V.Z.C.u.:.,.<.b.M.M.K.",
"J.J.J.N.$.F F o.7.n.J.M.M.M.v.d.{ _ V F G o.M.K.K.b.6.W X.y.r.r.,.l _  .f.M.J.M.",
"J.J.M.c.$.D B ^ <.7.b.M.b.f.| p Y N F (  . .v.J.J.x.v.) n G / ~ B Y Y b O.d.n.M.",
"M.M.M.9.M V n d V ] 4.s.| p r 8 ' W X.^ ' [ d.M.b.3.f.s.V F D G / <. .F F o.i.n.",
"m.M.c.T d d / ! D ! ( Q N e w 1.u.u.B.a.,.l 7.I.M.d.f.g.] F ~ d.x.f.x.%.D $.4.q.",
"q.g.7.W B ^ 7.3.O.F F B ' ,.u.V.S.S.G.U.B.1.2.K.f.d.f.g.{ I / c.m.m.m.n.-.D ! +.",
"| 3.] m D +.g.g.d.@.! k w r.V.S.S.G.G.U.S.B.2.6.0.s.tXQ._ 9  .f.b.m.b.M.v.&.n V ",
"W ^ T H J s.d.d.d.d.9.[ 7 r u.V.S.G.G.G.S.S.u.} [ s.{.kXaXI ` f.b.b.M.M.M.N.-.m ",
"b b G F o.s.d.d.d.s.g.7.] B ~ 5.V.Z.S.S.G.G.S.0.[ p.@.uXlXaX) s.c.m.M.M.M.J.J.w.",
") G m n 7.d.d.g.g.g.g.g.s.R D ~ u.V.S.Z.S.S.S.e.3 * Y./.fXgX~ +.d.m.c.M.M.J.J.M.",
"7.! S m s.s.g.g.g.g.g.g.s.` J D ~ e.V.Z.G.S.a.,.8 . K {.n.6./ ! +.f.c.b.M.M.M.M.",
"{ I D / Q.g.p 3.g.c.g.d.{ I F D F n 5.a.a.r.,.:.a o Y.^.v.L.O.F V +.c.b.m.M.M.M.",
"p 0 C #.3 & O # % 9 3.q.4.( W +.%.G ~ 2.,.:.[ <.w.8 - #X@XdXI.$.D $.+.7.q.q.f.c.",
"r 7 #.jX{.x O   # 4 < , a 7.w.J.L.k./ [ [ ,.[ q.b.q.% E.2X;X|.N.O.B M Y T ] T  .",
"I 0 { dXjX&X/.u X % w , @ % 1 5 e 8 ; 8 [ 7.<.<.c.J.3 1 ~.;X1X%XgX-.d B D H D F ",
"n b *.fXhXpX&X@X/.u = u * < < < ; ; # X p 7.h.[ 3.J.<.% 2 v '.1XqXhX%.m J J G F ",
"8...%.@X,X<X<X1X2X$XXXOX).E.v 7 & @     8 6.n.w.a q.f.& , , 3 _.3XqXiX) j.A.p.p.",
"S.F.p.6.L oX1X1X>X X).`.5X1X;XoX).T.Z 5 P X.h.m.<.p d.3 @ 2 N.[ }.4X6XeXC.Z.F.S.",
"S.F.U.r . = !.,X2X>XoX).6X2X1X<X:X>X%Xz.U Q 7.b.q.I ) _ X * rXy E.3X7XpXF.Z.Z.S.",
"S.F.F.; X q e *.@X8X8X8X4X2X2X2X<X:X*XN.T m ..7.{ 0 V U .   o E.-X:X}.D.C.Z.S.S.",
"F.S.y # :.q 2 4 7.eX_.[.=.L E..X-X:X6XpXo.m ~ I M 0 E 5   * ^.1X<X=X{.N.S.A.C.S.",
"F.e.& 1.q .     e p.i.e.r.2 % * u K (.*Xz.C S B B ] | $   u <X1XXX!.-X;X&XL.Z.S.",
"a.4 >.1       . y 1 [ q.# # # 1 % + & i z.-.J $.s.v.6..   + OX-XK = oX,X<X0XN.A.",
"e.u.4     = z z +.& % p     i W.=.v R 7 g.sXsXsXI.I.[     Z oXz : X T.:X.XK N.S.",
"Z.a.X   Z -X<X<X=X).!.{.L O = /.=X;X;X=X0XjXuXyXtXW.#.; C OXZ 1 <.& = E.9.X :.S.",
"C.1.  O .X8X2X8X<X8X9X7XwX{.: ; b A L `.XX5X4X4X4X3X;X-X3X/.. r 0.1.@ 2 ,.& 4 S.",
"2.r .   R ].-X-XoXoX+X#X;XqXR.g M E k ' 7 > v Z R.(..XOX-XZ   y t D.2.# 4 % 2 y.",
"B n +   :.w - > O O : T ^ #.&.@.8.q.f.x.i.w.a 0 j { 9.;.;.p   q 8 c.j.1 >.# 6 / ",
"S B P X . X X     X [ 7.i.h.b.n.n.b.x.x.g.g.3.I M ] q.q.s.| # o l 6.0.y.w + m H ",
"O.l.b.| %       # [ w.f.i.i.i.i.q.q.0.0.7.4.3.9 s g p a p p 3 X X 2 4 % X f F ) ",
"m.m.b.M.x.r ; 6 a 4.4.0.0.0.3.3.4.3.3.<.3.| <.7 > s > 6 > 3 3 : $ + O ; 7 n W d.",
"m.b.M.b.v.6.0 h [ i.f.i.i.i.f.i.i.q.q.q.q.7.4.9 f s f s f g g g h k g B n n ^ f.",
"c.c.m.m.m.q.p h ] x.H.n.H.D.M.n.c.n.v.g.g.h.7.9 c E ^ ..5.....5.r.a.t.8.~ F  .d.",
"d.d.g.c.c.7.9 c / q.g.g.g.c.x.h.d.7.3.<.{ { p 9 0  .C.S.C.C.C.Z.Z.Z.Z.C.,.E ] q.",
"_ _ { ` { p U f b T ` ` p ` ` p p p 0 p p 9 9 9 0 2.V.A.C.C.a.a.a.u.r.2.:.0 r p ",
"y y _ T B Y ' b b B m m B W N I U r 8 8 8 p P P M 5.e.r.r.1.,.>.:.l ' W E k y w ",
"<.} ! ! m J B m B o.-.l.k.k.&.9.+.{ l r { { /  .V ' :.t w j E M I f d n ) 6.<.<.",
"L.L.J.J.M.&.V F ! w.L.L.L.L.M.M.M.b.O.Y } <.3.} ~ j w 0 k ~ ..! V Q d ..v.J.K.K.",
"P.P.P.P.L.k.F D / x.K.K.K.L.M.M.M.M.7.M W ~ ' e 8 8 y a.a.V.A.A.p.>.' 6.J.K.J.K.",
"L.L.L.L.J.o.F D ) b.L.L.M.M.J.M.b.M.9.b ~ 9.d.0.[ w :.a.S.S.S.S.B.>.y 6.n.J.K.K."
};
