/* XPM */
static char *bed61bc873fc447e938a3e4c99b7c3336Y8kQ9IklHNYINkb[] = {
/* columns rows colors chars-per-pixel */
"40 40 220 2 ",
"   c #0E0C0D",
".  c #120A0C",
"X  c #1A0A0E",
"o  c #0E0E12",
"O  c #141216",
"+  c #191618",
"@  c #19171B",
"#  c #1D1A1A",
"$  c #22070C",
"%  c #38020D",
"&  c #290D13",
"*  c #390A13",
"=  c #25151A",
"-  c #2A1519",
";  c #211C1B",
":  c #232D0C",
">  c #243108",
",  c #242617",
"<  c #293310",
"1  c #1D1C21",
"2  c #201E22",
"3  c #2B1C23",
"4  c #341D25",
"5  c #232224",
"6  c #2A2726",
"7  c #29262A",
"8  c #2D292A",
"9  c #312D26",
"0  c #33272B",
"q  c #353927",
"w  c #35332D",
"e  c #3B362E",
"r  c #3B3B2D",
"t  c #2D2C32",
"y  c #332F31",
"u  c #353434",
"i  c #3A3632",
"p  c #3C3B32",
"a  c #37373C",
"s  c #3D3C3C",
"d  c #49030F",
"f  c #54040F",
"g  c #5D050F",
"h  c #460B15",
"j  c #520712",
"k  c #5B0614",
"l  c #640411",
"z  c #6A0411",
"x  c #660916",
"c  c #690919",
"v  c #740513",
"b  c #740914",
"n  c #7A0B14",
"m  c #780818",
"M  c #77101C",
"N  c #5D1726",
"B  c #681827",
"V  c #7A1525",
"C  c #483C2F",
"Z  c #5B2230",
"A  c #423D33",
"S  c #453E3A",
"D  c #6A222E",
"F  c #3E550B",
"G  c #3F5016",
"H  c #3D4726",
"J  c #3D432A",
"K  c #3E4236",
"L  c #445B0E",
"P  c #425514",
"I  c #475C14",
"U  c #495E15",
"Y  c #45551B",
"T  c #48561E",
"R  c #475A18",
"E  c #4A5C1C",
"W  c #505F1F",
"Q  c #48620A",
"!  c #4A630D",
"~  c #4C6214",
"^  c #4D611A",
"/  c #506813",
"(  c #51641A",
")  c #424627",
"_  c #444C24",
"`  c #43442C",
"'  c #444B2C",
"]  c #4A4E2D",
"[  c #455323",
"{  c #4A5525",
"}  c #475821",
"|  c #4C5B23",
" . c #475629",
".. c #4B532B",
"X. c #4D592A",
"o. c #515B2C",
"O. c #444433",
"+. c #494535",
"@. c #464B33",
"#. c #4C4C33",
"$. c #45423B",
"%. c #4B453B",
"&. c #474C3E",
"*. c #4D4C3C",
"=. c #514C3E",
"-. c #465031",
";. c #4D5432",
":. c #4B523A",
">. c #525735",
",. c #545B33",
"<. c #54543C",
"1. c #545B3A",
"2. c #5A5E3B",
"3. c #6E4B34",
"4. c #556524",
"5. c #5A6437",
"6. c #626D33",
"7. c #3D3D43",
"8. c #733444",
"9. c #3F4045",
"0. c #434445",
"q. c #4D4B42",
"w. c #43444B",
"e. c #494848",
"r. c #524C42",
"t. c #5A4843",
"y. c #4F5844",
"u. c #4D534C",
"i. c #565244",
"p. c #555746",
"a. c #5B5345",
"s. c #5C5A45",
"d. c #5C554A",
"f. c #5E5A4C",
"g. c #4B4B53",
"h. c #4B4D57",
"j. c #534D5D",
"k. c #4D5155",
"l. c #4F505A",
"z. c #585956",
"x. c #52535C",
"c. c #76444B",
"v. c #605649",
"b. c #645B4D",
"n. c #655E51",
"m. c #695E51",
"M. c #5D625C",
"N. c #626545",
"B. c #63624B",
"V. c #666154",
"C. c #6A6255",
"Z. c #6F6B55",
"A. c #6D6659",
"S. c #6F6A5B",
"D. c #70675B",
"F. c #7A665F",
"G. c #726A5D",
"H. c #75715F",
"J. c #545760",
"K. c #565963",
"L. c #5B5C66",
"P. c #5D5E69",
"I. c #625A66",
"U. c #5D6162",
"Y. c #5E616B",
"T. c #60636D",
"R. c #62636D",
"E. c #68616F",
"W. c #756D61",
"Q. c #756E62",
"!. c #777065",
"~. c #797166",
"^. c #7B7469",
"/. c #686771",
"(. c #706B79",
"). c #787377",
"_. c #820515",
"`. c #850919",
"'. c #990618",
"]. c #930A1D",
"[. c #890D22",
"{. c #991226",
"}. c #99152B",
"|. c #A71027",
" X c #8C2D3F",
".X c #B2273A",
"XX c #C6263A",
"oX c #88364B",
"OX c #913349",
"+X c #BA2B45",
"@X c #A5354D",
"#X c #BA3C53",
"$X c #D82947",
"%X c #D1304A",
"&X c #E32A49",
"*X c #854E58",
"=X c #964A5B",
"-X c #B34B59",
";X c #8D7652",
":X c #8E5D6A",
">X c #B65166",
",X c #96696D",
"<X c #8A7675",
"1X c #AE6C7E",
"2X c #D04059",
"3X c #E5415E",
"4X c #CE506A",
"5X c #DC546C",
"6X c #E6536D",
"7X c #E9637B",
"8X c #7C7581",
"9X c #857B84",
"0X c #987788",
"qX c #B87484",
"wX c #DF6B81",
"eX c #8C8386",
"rX c #9E8D98",
"tX c #A49194",
"yX c #C58998",
"uX c #C5909E",
/* pixels */
"Q.!.!.H.s.{ ! X.d.Q.G.Q.G.G.G.A.A.r.` R E a.Q.~.Q.q.A O.k.K.Y.L.l.7.s q.G.G.!.G.",
"Q.Q.!.G.4.~ ~ :.d.A.Q.S.G.G.A.b.%.O.E ~ ^ >.S.!.!.A.r.} :.k.l.w.0.K O.;.n.G.S.!.",
"Q.Q.G.Z.| ! U ] =.d.C.G.A.b.*.A ` E ~ | ;.;.A.Q.G.Q.C.o.I ^ X.[ I @._ E <.n.S.G.",
"G.G.G.a.T R I L | #.i.v.*.S i w @...:.;.O.$.n.D.G.S.S.b.E / ~ ^ X.q.:.^ ! ,.f.S.",
"D.Q.m.] L P | | ! | o.E } r u w.l.l.x.x.9.K a.A.D.C.C.m.#.~ X.f.V.b.V.4.! | r.f.",
"d.m.a.{ R ..a.=.,.~ U R O.0.l.K.Y.Y././.K.w.&.f.C.C.C.C.$._ X.C.A.D.G.Z.6.~ | <.",
"r.r.+.~ ! >.m.m.b.2.| ` u g.K.R.Y.R.R.R.Y.K.0.q.a.m.b.a.S w #.V.A.D.G.G.G.5.~ ~ ",
"} ] ] / ( v.b.b.b.b.s.$.q p h.K.Y.R.R.R.Y.Y.k.:.=.i.*.A ) _ @.n.A.Z.G.G.G.H.5.E ",
"P F E ~ >.b.b.b.b.b.b.v.] R { u.K.Y.Y.Y.T.T.P.u.T #.A ` ( ! X.b.C.A.G.G.G.Q.G.f.",
"o.( ~ U <.b.b.b.b.b.m.b.v...! ..k.K.Y.Y.Y.Y.Y.x.O.[ Y U ( U ' :.b.A.A.A.S.Q.Q.G.",
"a.W Q U a.b.m.m.m.m.m.m.v.+.( !  .u.x.Y.T.Y.x.w.s J { 5.B.*.X.E i.n.A.A.G.G.G.Q.",
"%.) ~ | b.b.b.m.m.m.m.b.%._ ~ ! ~ R u.x.x.g.7.S 0.i.V.G.Q.C.>.~ E <.m.A.D.G.G.D.",
"A q I >.b.b.m.m.m.m.b.%.A P Y <.5./  .w.9.7.$.e.f.A.A.G.G.!.b.| Q W <.a.d.d.b.C.",
"p q [ i.b.m.m.m.m.m.*.' _ Y ;.D.^.N.X.@.0.S S f.A.G.G.G.G.G.Q.s.{ U E ' ' #. .:.",
"_ r p %.r.a.a.b.v.S C H K =.C.D.k.Q.A.q.q.a.q.q.C.A.G.G.G.Q.Q.S.*.[ L U ! / ! ~ ",
"I Y H J A S S C S S 8.c.*X,X<X).T.8XeX8X).).).z.f.C.A.A.A.G.G.Q.b.{ I E ( ( ^ ^ ",
"y.3.3.C S 8.c.:X=X>X5X7X7X7X7X1X0X8X(.E.I.L.I.E.9XeX<XF.A.C.G.A.<.( L | M.U.z.z.",
"Y.oX%X4XqXqXqX5X3X3X6X2XZ B .X%X2X>X:XI.x.K.j.j.j.E.rXrXrX,X:XF.>.~ U 4.L.Y.Y.Y.",
"z.D M OX-X@X}.[.[.].|.|.}.V B {.XX%X5X-X@XOXoXOXoX8.OX0XtXuX1XyX1X;XB.U.Y.L.T.Y.",
"J.4 c v v d & = 3 * g v m n ].]..X+X%X$X$X$X$X&X&XXXZ %X6X7X#X X X-X5XqX9X/.Y.Y.",
"j.3 j l d 3 1 O 7.1 = k n v n n m _.`.n `.`.`.`.].`.m [.'.B 0 ; 0.6 V XX>X<XeXT.",
"w.O % j $ 7 y @ @ . @ * v v n v v v b n n n M M b c l l k e 0.; t 1 - m |.-X,X/.",
"J.O $ % X ; o 9 5 3 a % z z z g g j f x b n n _._._.v v h 0 - e 9 t O.k '..X,XY.",
"Y.g.1 X . 7 7 O # X # $ f f f d * & & & - h g x M M [.`.h y i 2 5 @ 6 N ].`.:X(.",
"P.K.7.5 o O 5 o 7 @ o . $ X X .       O + @ + # = = - = O @ u @ a 3 O & & 6 g.P.",
"L.j.0.J q < 5 7 8 @ ; , ; ; # , : , : > > : : > , 9 9 9 9 , 3 7 0 6 ; ; 5 a l.P.",
"w.0. .G G E 1.z.i.i w u w w r H [ _ @. .o.*.+.} ;.b.n.b.b.b.d.a.a.a.S A O.w.K.k.",
"E ~ ~ Y R ~ { A p w w u p O.>.2.f.f.V.V.C.V.q.' ..f.m.n.b.m.m.b.b.b.t.A i K &.X.",
"Q E ,.b.n.o.Y i $.q.f.V.S.!.!.!.~.Q.S.G.D.G.d...E <.m.b.b.b.b.b.b.d.=.A ` U / / ",
",.N.G.G.!.1.R O.V.Q.~.^.^.^.~.!.!.!.G.G.G.D.C.#.U E =.a.t.r.r.r.%.S A i A E ~ o.",
"D.D.G.G.G.d._ @.z.~.~.~.~.~.!.!.!.Q.G.G.F.G.A.>.E I _ #.' C A ` ` ` ) ) ` P } b.",
"A.Z.A.S.G.d.) ) a.Q.!.!.!.!.!.!.G.Q.G.G.D.D.C.+.Y U I I U Y T | _ ' { U I P  .n.",
"C.C.C.D.G.b.A r =.D.!.!.!.!.!.!.Q.G.G.G.A.C.v.A Y [ 5.5.y.1.5.k.k.l.l.p. .U ;.b.",
"b.n.C.C.m.a.e Y | f.V.V.C.C.C.V.b.d.r.r.*.%.S e r :.K.L.L.Y.L.Y.Y.L.Y.Y.0.[ #.d.",
"S O.%.+.+.A r P P +.+.+.` S +.A A i p e e e e e p e.K.P.L.L.K.l.l.l.g.e.7.r e A ",
"p s O.] R ' ' Y P R ! E T | T _ J e e u i e ) _ Y :.g.g.h.w.9.9.9.K ' } [ H s i ",
"q.q.| | ~ ~ U U I >.5.N.N.N.5.s.<.$.K p %.*.;.;.| -.7.a a J [ T H G F I o.<.u.e.",
"~.~.!.Q.G.5.E ~ W n.^.~.~.Q.Q.G.S.A.,...&.*.q.q. .J u J H  .;.| ^ } F :.C.Q.Q.!.",
"^.^.^.^.^.N.~ ! X.V.~.~.Q.Q.Q.G.G.G.a.Y [  .@.p w w s l.x.K.L.U.x.0.@.p.Q.~.~.~.",
"^.!.^.Q.Q.1.~ L X.A.Q.Q.Q.Q.G.G.D.G.s.P o.a.f.a.s i 0.l.Y.Y.Y.Y.x.9.s p.S.G.Q.!."
};
